<svg version="1.1" id="Layer_1" xmlns="http://www.w3.org/2000/svg" xmlns:xlink="http://www.w3.org/1999/xlink" x="0px" y="0px" viewBox="0 0 90.3 90.1" style="enable-background:new 0 0 90.3 90.1;" xml:space="preserve">
 <style type="text/css">
  .st0{fill-rule:evenodd;clip-rule:evenodd;fill:#127EBE;}
	.st1{fill-rule:evenodd;clip-rule:evenodd;fill:#FAD900;}
	.st2{fill-rule:evenodd;clip-rule:evenodd;fill:#FFFFFF;}
 </style>
 <g>
  <path class="st0" d="M45.2,0C70,0,90.3,20.2,90.3,45.1c0,24.8-20.3,45.1-45.2,45.1C20.3,90.1,0,69.9,0,45.1C0,20.2,20.3,0,45.2,0">
  </path>
  <path class="st1" d="M59.2,37.1C44.8,23.8,21.6,35,21.4,51.3c0.4,17,20.1,12.8,19.6,1.9C41.4,40.6,47.5,38.1,59.2,37.1">
  </path>
  <path class="st1" d="M31.2,71.5C45.6,84.8,68.8,73.6,69,57.3c-0.4-17-20.1-12.8-19.6-1.9C49,68,42.9,70.5,31.2,71.5">
  </path>
  <path class="st2" d="M45.2,24.6c16.6,0,30.1,13.5,30.1,30.1S61.8,84.7,45.2,84.7C28.6,84.7,15,71.2,15,54.7S28.6,24.6,45.2,24.6
		 M45.2,20.2c19,0,34.6,15.5,34.6,34.5c0,19-15.5,34.5-34.6,34.5c-19,0-34.6-15.5-34.6-34.5C10.6,35.7,26.1,20.2,45.2,20.2">
  </path>
 </g>
</svg>