<?xml version="1.0" encoding="UTF-8" standalone="no"?>
<!-- Generator: Adobe Illustrator 16.0.4, SVG Export Plug-In . SVG Version: 6.00 Build 0)  -->

<svg
   xmlns:dc="http://purl.org/dc/elements/1.1/"
   xmlns:cc="http://creativecommons.org/ns#"
   xmlns:rdf="http://www.w3.org/1999/02/22-rdf-syntax-ns#"
   xmlns:svg="http://www.w3.org/2000/svg"
   xmlns="http://www.w3.org/2000/svg"
   xmlns:sodipodi="http://sodipodi.sourceforge.net/DTD/sodipodi-0.dtd"
   xmlns:inkscape="http://www.inkscape.org/namespaces/inkscape"
   version="1.1"
   id="Ebene_1"
   x="0px"
   y="0px"
   width="233.84428"
   height="114.11511"
   viewBox="0 0 233.84429 114.11512"
   enable-background="new 0 0 283.465 141.732"
   xml:space="preserve"
   inkscape:version="0.91 r13725"
   sodipodi:docname="Carl_Stahl_logo.svg"><metadata
     id="metadata3423"><rdf:RDF><cc:Work
         rdf:about=""><dc:format>image/svg+xml</dc:format><dc:type
           rdf:resource="http://purl.org/dc/dcmitype/StillImage" /><dc:title></dc:title></cc:Work></rdf:RDF></metadata><defs
     id="defs3421" /><sodipodi:namedview
     pagecolor="#ffffff"
     bordercolor="#666666"
     borderopacity="1"
     objecttolerance="10"
     gridtolerance="10"
     guidetolerance="10"
     inkscape:pageopacity="0"
     inkscape:pageshadow="2"
     inkscape:window-width="1024"
     inkscape:window-height="1194"
     id="namedview3419"
     showgrid="false"
     fit-margin-top="0"
     fit-margin-left="0"
     fit-margin-right="0"
     fit-margin-bottom="0"
     inkscape:zoom="2.9562733"
     inkscape:cx="116.44858"
     inkscape:cy="58.021108"
     inkscape:window-x="0"
     inkscape:window-y="27"
     inkscape:window-maximized="1"
     inkscape:current-layer="Ebene_1" /><g
     id="g3391"
     transform="translate(-25.283916,-14.771993)"><path
       d="m 155.708,27.41 c 0,0 -3.979,-0.114 -4.081,-0.107 l 0,21.727 49.284,37.724 -22.173,0.105 -49.915,-37.987 0,-21.473 c 0.001,0.039 -3.966,0.08 -3.993,-0.017 l 14.817,-12.61 c 0.093,-0.011 16.135,12.578 16.061,12.638 l 0,0 z"
       id="path3393"
       inkscape:connector-curvature="0"
       style="fill:#b2b2b2" /><path
       d="m 139.438,59.335 -35.029,27.392 -22.638,0 45.933,-36.364 c 0.011,0.016 11.843,9.054 11.734,8.972 l 0,0 z"
       id="path3395"
       inkscape:connector-curvature="0"
       style="fill:#b2b2b2" /><path
       d="m 175.615,103.041 -2.641,0 -0.016,25.438 -10.193,0 0,-25.317 -2.107,0.03 0.007,-4.461 c 3.547,-0.131 3.678,-3.466 4.729,-6.093 l 0.841,-4.406 6.723,0 0.034,10.034 2.608,0.006 0.015,4.769 0,0 z"
       id="path3397"
       inkscape:connector-curvature="0"
       style="fill:#e30613" /><path
       d="m 192.715,121.953 c 2.312,-1.996 1.576,-6.091 1.156,-8.612 -2.102,0.735 -4.624,0.314 -6.41,1.892 -1.366,1.155 -2.102,2.938 -1.786,4.935 0.314,1.156 1.365,2.627 2.627,2.732 1.68,0.419 3.257,-0.001 4.413,-0.947 l 0,0 z m -14.942,-23.681 19.145,0.04 c 2.102,0.421 4.099,1.156 5.569,2.837 2.284,3.672 1.63,17.358 1.576,19.6 l 0,7.731 -9.562,0 -0.104,-2.372 c -1.472,0.104 -2.732,1.366 -4.203,1.786 -3.468,1.156 -8.092,1.366 -11.034,-1.156 -2.942,-2.206 -3.888,-5.779 -3.152,-9.247 0.525,-3.783 2.424,-6.218 6.655,-7.597 3.766,-1.404 11.523,1.926 11.839,-3.854 -0.21,-1.261 -1.155,-2.579 -2.417,-3 l -14.375,0 0.063,-4.768 0,0 z"
       id="path3399"
       inkscape:connector-curvature="0"
       style="fill:#e30613" /><path
       d="m 77.964,114.302 c -3.153,0.525 -7.146,0.63 -8.407,4.203 -0.42,1.682 0.105,3.468 1.681,4.413 1.156,0.631 2.942,0.946 4.204,0.211 3.678,-1.577 2.522,-5.885 2.522,-8.827 l 0,0 z m -17.334,6.711 c 0,0 -0.071,-3.627 0.819,-5.681 l 1.108,-1.792 c 3.888,-4.729 8.996,-2.933 14.46,-4.089 1.156,-0.63 1.366,-1.892 1.261,-3.152 -0.315,-1.155 -1.366,-2.102 -2.417,-2.417 l -13.829,-0.061 0.038,-4.564 19.466,0.002 c 1.892,0.104 3.468,0.945 4.833,2.521 2.837,3.993 1.366,9.772 1.682,14.816 l 0,11.891 -9.562,0 c -0.315,-0.525 0.21,-1.592 -0.525,-1.907 -3.888,1.996 -9.668,3.468 -13.976,1.051 -2.948,-1.846 -3.037,-4.872 -3.358,-6.618 l 0,0 z"
       id="path3401"
       inkscape:connector-curvature="0"
       style="fill:#e30613" /><polygon
       points="235.859,128.487 235.859,88.252 235.859,88.252 245.842,88.252 245.842,128.487 "
       id="polygon3403"
       style="fill:#e30613" /><path
       d="m 216.056,101.886 0.21,0.104 c 3.888,-3.152 10.193,-4.729 14.712,-1.996 2.102,1.155 2.731,3.362 2.941,5.569 l 0,22.927 -10.088,0 -0.104,-20.825 c -0.315,-1.051 -1.261,-1.997 -2.312,-2.312 -1.261,-0.315 -3.22,-0.369 -4.506,1.162 l -0.433,1.254 c -0.14,6.498 -0.222,14.126 -0.21,20.71 l -10.088,0 0,-40.1 9.878,0 0,13.507 0,0 z"
       id="path3405"
       inkscape:connector-curvature="0"
       style="fill:#e30613" /><polygon
       points="111.17,128.479 111.17,88.413 111.17,88.413 121.153,88.413 121.153,128.479 "
       id="polygon3407"
       style="fill:#e30613" /><path
       d="m 109.036,107.843 c -3.387,-0.716 -6.862,1.202 -7.6,2.23 -1.583,1.838 -1.423,8.228 -1.455,8.17 0.031,0.09 -0.026,10.236 -0.008,10.239 l -9.61,0 0,-29.147 9.668,0 c 0.067,0.216 -0.19,3.779 0.125,5.355 1.156,-1.682 3.027,-4.204 5.339,-4.834 1.261,-0.315 2.174,-0.525 3.54,-0.631 l 0,8.618 0.001,0 z"
       id="path3409"
       inkscape:connector-curvature="0"
       style="fill:#e30613" /><path
       d="m 59.433,118.115 c -0.193,1.473 -1.39,3.656 -1.588,3.953 -3.838,5.745 -9.965,7.107 -16.66,6.508 -5.885,-0.21 -11.874,-3.362 -13.976,-9.142 -3.152,-8.302 -2.837,-19.44 3.993,-25.851 6.62,-5.779 19.23,-6.095 25.745,0.21 1.261,1.472 2.62,2.62 2.865,8.98 l -0.056,1.017 -9.744,-0.014 -0.243,-2.066 c -1.45,-6.279 -7.323,-5.605 -10.055,-3.924 -2.42,1.469 -2.837,4.414 -3.468,6.936 -0.315,5.779 -0.917,14.62 4.204,16.078 1.891,1.051 4.729,0.63 6.62,-0.105 2.627,-1.471 3.19,-3.972 3.363,-6.726 l 9.161,-0.002 -0.161,4.148 0,0 z"
       id="path3411"
       inkscape:connector-curvature="0"
       style="fill:#e30613" /><path
       d="m 158.606,103.133 -9.501,0.014 c -0.315,-2.837 0,-6.305 -3.152,-7.671 -1.786,-0.421 -3.994,-0.421 -5.57,0.42 -1.156,0.946 -1.681,2.102 -1.576,3.468 0,1.366 1.156,2.417 2.207,3.048 7.146,2.731 19.546,2.869 19.23,13.903 -0.104,4.203 -2.207,8.302 -6.2,10.088 -6.095,2.837 -15.447,3.573 -21.332,-0.21 -4.098,-2.732 -4.834,-7.251 -4.939,-11.875 l 9.773,0 c 0.84,1.787 0.105,4.624 2.207,5.885 2.102,1.997 5.36,1.682 7.777,0.736 1.261,-0.736 2.207,-1.997 2.312,-3.468 0.21,-1.682 -1.156,-3.048 -2.521,-3.783 -7.042,-2.522 -18.811,-2.975 -19.021,-13.483 0,-3.468 1.576,-6.62 4.309,-8.827 7.041,-4.413 20.299,-5.148 25.028,3.258 0.735,1.261 1.076,3.915 1.004,5.111 l -0.035,3.386 0,0 z"
       id="path3413"
       inkscape:connector-curvature="0"
       style="fill:#e30613" /><path
       d="m 252.467,93.11 1.077,0 c 0.723,0 1.36,-0.071 1.36,-0.922 0,-0.709 -0.694,-0.794 -1.275,-0.794 l -1.162,0 0,1.716 0,0 z m 0,0.822 0,2.51 -0.964,0 0,-5.868 2.226,0 c 1.417,0 2.14,0.496 2.14,1.687 0,1.062 -0.651,1.502 -1.53,1.602 l 1.645,2.58 -1.092,0 -1.517,-2.51 -0.908,0 0,-0.001 z"
       id="path3415"
       inkscape:connector-curvature="0"
       style="clip-rule:evenodd;fill:#e30613;fill-rule:evenodd" /><path
       stroke-miterlimit="3.8637"
       d="m 258.703,93.407 c 0,-3.188 -2.409,-5.301 -5.188,-5.301 -2.807,0 -5.216,2.112 -5.216,5.301 0,3.02 2.168,5.302 5.216,5.302 2.779,0 5.188,-2.112 5.188,-5.302 l 0,0 z"
       id="path3417"
       inkscape:connector-curvature="0"
       style="fill:none;stroke:#e30613;stroke-width:0.85039997;stroke-miterlimit:3.86369991" /></g></svg>