<svg id="Layer_1" data-name="Layer 1" xmlns="http://www.w3.org/2000/svg" viewBox="0 0 580 457.15"><title>CNBC logo - Brandlogos.net</title><path id="path4144" d="M443.13,155.43c-20.54,0-39.9,11.59-46.91,30.11a51.64,51.64,0,0,0-3.37,22.57h21.31c8.82,0,14.18,4.56,14.18,7.64-22.32,8.73-31.26,20.54-29.95,29.84l19.76,140.57L487.91,225.5c4.69-10.77,5.66-19.82,2.29-33-3.17-12.39-10.74-24.54-27.47-32.6A50.33,50.33,0,0,0,443.13,155.43Z" transform="translate(-94 -155.43)" style="fill:#6e55dc"/><path id="path1016" d="M324.74,155.43a49.91,49.91,0,0,0-19.6,4.11c-16.73,8.07-24.68,20.59-27.85,33A50.52,50.52,0,0,0,280,225.88l70,160.28L375,211.49a51.13,51.13,0,0,0-3-26C364.7,167.13,346.58,155.43,324.74,155.43Z" transform="translate(-94 -155.43)" style="fill:#ef1541"/><path id="path4151" d="M202.3,233.88a46,46,0,0,0-14.37,13.95c-9.57,15.12-10.3,32.51-6.69,43.67,3.84,11.87,11.4,20.18,20.84,26.5l141.61,94.9-68.8-156.63A50.65,50.65,0,0,0,258,235.9c-15.88-11.25-38.62-12.31-55.66-2Z" transform="translate(-94 -155.43)" style="fill:#ff7112"/><path id="path4155" d="M143.51,368.7a44.07,44.07,0,0,0-4.18,19.59c.47,17.89,6.61,30.11,18.75,39.68,7.43,5.85,20.71,10.74,32.06,10.74h165l-137.35-92A52.23,52.23,0,0,0,189.67,338a46.83,46.83,0,0,0-29.21,9.84C150.13,355.81,146.55,362.55,143.51,368.7Z" transform="translate(-94 -155.43)" style="fill:#fccc12"/><path id="path4161" d="M565.51,233.88a46,46,0,0,1,14.37,13.95c9.57,15.12,10.3,32.51,6.69,43.67-3.84,11.87-11.4,20.18-20.84,26.5l-141.61,94.9,68.8-156.63a50.65,50.65,0,0,1,16.92-20.37c15.88-11.25,38.62-12.31,55.66-2Z" transform="translate(-94 -155.43)" style="fill:#069de0"/><path id="path4163" d="M624.44,368.7a44.07,44.07,0,0,1,4.18,19.59c-.47,17.89-6.61,30.11-18.75,39.68-7.43,5.85-20.71,10.74-32.06,10.74H412.38l137.54-92a52.55,52.55,0,0,1,29-8.75,46.78,46.78,0,0,1,29,9.84c10.33,8,13.49,14.72,16.53,20.87Z" transform="translate(-94 -155.43)" style="fill:#05ac3f"/><path id="path14" d="M397.19,473.22V609H477.5c9.57,0,22.4-2.62,30.37-8.32,4.82-3.44,8.75-7.23,11.62-13.52a50.17,50.17,0,0,0,4.39-20.09c0-13.74-5.28-23-20.23-31.2A36.16,36.16,0,0,0,514,527.48c3.23-4,5.11-8.56,5.11-15.71,0-25.37-21.6-38.55-41.64-38.55Zm28.58,25.5h45c14,0,17.69,5.79,17.69,13a11,11,0,0,1-4.5,9.39,17.27,17.27,0,0,1-9.12,3.12H474l-48.25,0Zm0,51.08h44.89c7.36,0,12.85,1.1,16.86,4,3.83,2.76,5.82,7.05,5.82,12.55a14.31,14.31,0,0,1-5.49,11.81c-4.16,3.24-8.85,4.33-16.75,4.33H425.77Z" transform="translate(-94 -155.43)" style="fill:#0a1f55"/><path id="path13" d="M244.88,473.22V609h29.68v-88.3L340.25,609h31.61V473.22H342.34v88.11l-65.67-88.11Z" transform="translate(-94 -155.43)" style="fill:#0a1f55"/><path id="rect12339" d="M611.1,469.63c-40.3,0-74.24,31.9-74.24,70.77,0,15.52,4.31,31.29,17.79,46.75,12.12,13.89,30.68,24.61,56.45,25.42,32.39,0,47.56-12.8,62.9-25.68l-20.57-24.17c-5.54,4.55-9.94,8.8-16,12.17-7.25,4-13.91,5.87-26.29,5.87-25.92,0-42.77-20.17-42.77-40.36,0-20.43,19-39.13,42.77-39.13,15.53,0,26.21,6.06,35.31,16L669,495C653.19,477.93,634.19,469.63,611.1,469.63Z" transform="translate(-94 -155.43)" style="fill:#0a1f55"/><path id="path17" d="M168.24,469.63c-40.3,0-74.24,31.9-74.24,70.77,0,15.52,4.31,31.29,17.79,46.75,12.12,13.89,30.68,24.61,56.45,25.42,32.39,0,47.56-12.8,62.9-25.68l-20.57-24.17c-5.54,4.55-9.94,8.8-16,12.17-7.25,4-13.91,5.87-26.29,5.87-25.92,0-42.77-20.17-42.77-40.36,0-20.43,19-39.13,42.77-39.13,15.53,0,26.21,6.06,35.31,16L226.13,495c-15.8-17.09-34.81-25.39-57.89-25.39Z" transform="translate(-94 -155.43)" style="fill:#0a1f55"/></svg>