<svg xmlns="http://www.w3.org/2000/svg" xmlns:xlink="http://www.w3.org/1999/xlink" id="Ebene_1" x="0px" y="0px" viewBox="0 0 206 252" xml:space="preserve">
<rect x="0" fill="none" width="206" height="252"></rect>
<path fill="#FF4814" d="M0.8,1v206h204.4V1H0.8z M98.5,154.4H28.6c2,2.9,4.1,5.6,6.4,8.3h63.5v7.4H42.1c3.2,3,6.7,5.8,10.4,8.3h46  v7.4h-33c10.1,4.7,21.3,7.5,33,8.1v8.3c-52.1-2.4-93.5-45.3-93.5-98c0-52.6,41.5-95.6,93.5-98v8.3C51,16.7,13.2,55.9,13.2,104  c0,9.5,1.5,18.7,4.3,27.4H70c1.3,2.6,2.9,5.1,4.8,7.4H20.1c1.2,2.8,2.5,5.6,4,8.3H85c4.1,2.2,8.6,3.7,13.4,4.3V154.4z M68.6,96.9  c0-29.5,34.4-34.4,34.4-68.1c0,33.7,34.4,38.6,34.4,68.1c0,19-15.4,34.4-34.4,34.4C84,131.4,68.6,115.9,68.6,96.9z M107.7,202v-8.3  c11.7-0.6,22.8-3.4,32.9-8.1h-32.9v-7.4h45.9c3.7-2.5,7.1-5.3,10.4-8.3h-56.3v-7.4H171c2.3-2.6,4.4-5.4,6.4-8.3h-69.7v-3.1  c4.8-0.6,9.4-2.1,13.4-4.3h60.8c1.5-2.7,2.8-5.4,4-8.3h-54.6c1.9-2.2,3.5-4.7,4.8-7.4h52.4c2.8-8.6,4.3-17.8,4.3-27.4  c0-48.1-37.7-87.3-85.2-89.7V6c52,2.4,93.4,45.4,93.4,98C201.1,156.6,159.7,199.5,107.7,202z"></path>
<g>
	<path fill="#FF4814" d="M62.5,251c-5.2,0-18.9,0-18.9-15.6c0-15.6,13.8-15.6,18.9-15.6c5.2,0,18.9,0,18.9,15.6   C81.4,251,67.7,251,62.5,251z M62.5,221.8c-8.4,0-16.9,1.6-16.9,13.6c0,12,8.6,13.6,16.9,13.6c8.4,0,16.9-1.6,16.9-13.6   C79.4,223.4,70.8,221.8,62.5,221.8z M19.5,251c-5.2,0-18.9,0-18.9-15.6c0-15.6,13.8-15.6,18.9-15.6c4.6,0,16.7,0,18.2,12.6l0.1,1.1   H24.2l-0.1-0.8c-0.3-1.8-1.3-3.9-4.6-3.9c-4,0-5.9,2.1-5.9,6.7c0,4.5,1.8,6.7,5.4,6.7c2.9,0,4.4-1.2,5.1-4l0.2-0.8h13.7l-0.2,1.2   c-0.8,4.4-2.3,7.2-4.8,9.1C30.1,250,25.8,251,19.5,251z M19.5,221.8c-8.4,0-16.9,1.6-16.9,13.6c0,12,8.6,13.6,16.9,13.6   c5.7,0,9.7-0.9,12.2-2.9c1.9-1.4,3.1-3.5,3.8-6.7h-9.7c-1.1,3.2-3.3,4.7-6.8,4.7c-2.8,0-7.4-1.1-7.4-8.7c0-7.2,4.3-8.7,7.9-8.7   c3.3,0,5.6,1.8,6.4,4.8h9.7C33.9,222.9,26.2,221.8,19.5,221.8z M205.4,250h-12.8l-8.2-8.4v8.4H171v-29.3h13.3l7.7,8.2v-8.2h13.4   V250z M193.5,248h9.9v-25.3H194v9.6h-1.5l-9-9.6H173V248h9.4v-9.8h1.4l0.4,0.3L193.5,248z M166.8,250h-13.7l-1.2-3.1h-12.8L138,250   h-13.7l12.5-29.3h17.5L166.8,250z M154.5,248h9.3L153,222.7h-14.9L127.3,248h9.3l1.1-3.1h15.6L154.5,248z M108.9,250H87.5v-29.3   h21.2c10,0,14.6,4.7,14.6,14.7C123.3,245.3,118.6,250,108.9,250z M89.5,248h19.4c8.6,0,12.4-3.9,12.4-12.7c0-9-3.7-12.7-12.6-12.7   H89.5V248z M62.5,244.1c-3.6,0-7.9-1.5-7.9-8.7c0-7.2,4.3-8.7,7.9-8.7s7.9,1.5,7.9,8.7C70.4,242.6,66.1,244.1,62.5,244.1z    M62.5,228.7c-4,0-5.9,2.1-5.9,6.7c0,4.6,1.9,6.7,5.9,6.7c4,0,5.9-2.1,5.9-6.7C68.4,230.8,66.5,228.7,62.5,228.7z M104.8,243.2h-7   v-15.6h7c6,0,6.5,4,6.5,7.8C111.4,239.1,110.9,243.2,104.8,243.2z M99.9,241.2h5c3.6,0,4.5-1.2,4.5-5.8c0-4.5-1-5.8-4.5-5.8h-5   V241.2z M151.8,240.3h-12.5l5.5-13.1h1.3l0.3,0.6L151.8,240.3z M142.3,238.3h6.4l-3.2-7.6L142.3,238.3z"></path>
</g>
</svg>