<?xml version="1.0" encoding="UTF-8" standalone="no"?>
<svg
   xmlns:dc="http://purl.org/dc/elements/1.1/"
   xmlns:cc="http://creativecommons.org/ns#"
   xmlns:rdf="http://www.w3.org/1999/02/22-rdf-syntax-ns#"
   xmlns:svg="http://www.w3.org/2000/svg"
   xmlns="http://www.w3.org/2000/svg"
   xmlns:sodipodi="http://sodipodi.sourceforge.net/DTD/sodipodi-0.dtd"
   xmlns:inkscape="http://www.inkscape.org/namespaces/inkscape"
   viewBox="0 0 322.40613 234.86814"
   height="234.86813"
   width="322.40613"
   xml:space="preserve"
   id="svg2"
   version="1.1"
   inkscape:version="0.91 r13725"
   sodipodi:docname="Emblem of the Ministry of Science, ICT and Future Planning (English).svg"><sodipodi:namedview
     pagecolor="#ffffff"
     bordercolor="#666666"
     borderopacity="1"
     objecttolerance="10"
     gridtolerance="10"
     guidetolerance="10"
     inkscape:pageopacity="0"
     inkscape:pageshadow="2"
     inkscape:window-width="640"
     inkscape:window-height="480"
     id="namedview84"
     showgrid="false"
     fit-margin-bottom="5"
     fit-margin-top="5"
     fit-margin-left="5"
     fit-margin-right="5"
     inkscape:zoom="0.78052656"
     inkscape:cx="161.20293"
     inkscape:cy="117.43361"
     inkscape:window-x="0"
     inkscape:window-y="0"
     inkscape:window-maximized="0"
     inkscape:current-layer="svg2" /><metadata
     id="metadata8"><rdf:RDF><cc:Work
         rdf:about=""><dc:format>image/svg+xml</dc:format><dc:type
           rdf:resource="http://purl.org/dc/dcmitype/StillImage" /><dc:title></dc:title></cc:Work></rdf:RDF></metadata><defs
     id="defs6"><clipPath
       id="clipPath22"
       clipPathUnits="userSpaceOnUse"><path
         id="path20"
         d="m 0,226.77 340.16,0 L 340.16,0 0,0 Z"
         inkscape:connector-curvature="0" /></clipPath></defs><g
     transform="matrix(1.3333333,0,0,-1.3333333,-65.570398,268.61453)"
     id="g10"><g
       transform="translate(68.1758,75.5684)"
       id="g12"><path
         id="path14"
         style="fill:#5c5c5b;fill-opacity:1;fill-rule:nonzero;stroke:none"
         d="m 0,0 0,-15.269 -2.453,0 0,12.29 -3.988,-12.29 -2.366,0 -3.986,12.29 0,-12.29 -2.455,0 0,15.269 3.769,0 3.856,-11.896 L -3.768,0 Z"
         inkscape:connector-curvature="0" /></g><g
       id="g16"><g
         clip-path="url(#clipPath22)"
         id="g18"><path
           id="path24"
           style="fill:#5c5c5b;fill-opacity:1;fill-rule:nonzero;stroke:none"
           d="m 71.217,71.275 2.498,0 0,-10.976 -2.498,0 z m 2.826,3.089 c 0,-0.424 -0.156,-0.793 -0.471,-1.106 -0.314,-0.315 -0.689,-0.472 -1.129,-0.472 -0.437,0 -0.814,0.157 -1.127,0.472 -0.314,0.313 -0.472,0.682 -0.472,1.106 0,0.438 0.158,0.814 0.472,1.128 0.313,0.314 0.69,0.471 1.127,0.471 0.44,0 0.815,-0.157 1.129,-0.471 0.315,-0.314 0.471,-0.69 0.471,-1.128"
           inkscape:connector-curvature="0" /><g
           transform="translate(79.2305,65.8203)"
           id="g26"><path
             id="path28"
             style="fill:#5c5c5b;fill-opacity:1;fill-rule:nonzero;stroke:none"
             d="m 0,0 0,-5.521 -2.477,0 0,10.976 2.389,0 0,-1.468 c 0.293,0.511 0.715,0.927 1.272,1.248 0.554,0.322 1.152,0.483 1.795,0.483 1.3,0 2.341,-0.443 3.123,-1.325 C 6.883,3.508 7.273,2.329 7.273,0.854 l 0,-6.375 -2.498,0 0,5.74 c 0,1.168 -0.189,2.033 -0.57,2.595 C 3.826,3.377 3.242,3.658 2.453,3.658 2.045,3.658 1.646,3.523 1.26,3.253 0.873,2.982 0.576,2.614 0.373,2.146 0.123,1.606 0,0.891 0,0"
             inkscape:connector-curvature="0" /></g><path
           id="path30"
           style="fill:#5c5c5b;fill-opacity:1;fill-rule:nonzero;stroke:none"
           d="m 89.457,71.275 2.498,0 0,-10.976 -2.498,0 z m 2.826,3.089 c 0,-0.424 -0.156,-0.793 -0.47,-1.106 -0.315,-0.315 -0.69,-0.472 -1.129,-0.472 -0.438,0 -0.815,0.157 -1.127,0.472 -0.315,0.313 -0.473,0.682 -0.473,1.106 0,0.438 0.158,0.814 0.473,1.128 0.312,0.314 0.689,0.471 1.127,0.471 0.439,0 0.814,-0.157 1.129,-0.471 0.314,-0.314 0.47,-0.69 0.47,-1.128"
           inkscape:connector-curvature="0" /><g
           transform="translate(93.9863,62.3369)"
           id="g32"><path
             id="path34"
             style="fill:#5c5c5b;fill-opacity:1;fill-rule:nonzero;stroke:none"
             d="M 0,0 1.557,1.599 C 1.994,1 2.477,0.533 3.002,0.197 c 0.512,-0.306 1.059,-0.46 1.643,-0.46 0.554,0 1.027,0.113 1.414,0.339 0.386,0.227 0.58,0.529 0.58,0.909 0,0.38 -0.186,0.676 -0.559,0.888 C 5.707,2.084 5.266,2.285 4.754,2.476 4.156,2.665 3.543,2.877 2.914,3.11 2.066,3.417 1.447,3.812 1.053,4.294 0.658,4.775 0.461,5.323 0.461,5.937 c 0,0.905 0.424,1.675 1.271,2.311 0.846,0.635 1.846,0.953 3,0.953 1.227,0 2.227,-0.293 3.002,-0.877 C 8.129,8.018 8.441,7.638 8.676,7.186 L 7.143,5.695 C 6.937,6.046 6.697,6.331 6.42,6.55 5.937,6.974 5.332,7.186 4.602,7.186 4.178,7.186 3.809,7.079 3.494,6.868 3.182,6.656 3.023,6.404 3.023,6.112 3.023,5.791 3.199,5.521 3.551,5.302 3.9,5.082 4.418,4.87 5.105,4.666 5.354,4.593 5.639,4.505 5.959,4.403 7.025,4.053 7.832,3.6 8.381,3.045 8.928,2.489 9.201,1.825 9.201,1.052 9.201,0.146 8.764,-0.639 7.887,-1.304 7.012,-1.968 5.895,-2.301 4.535,-2.301 3.396,-2.301 2.389,-2.037 1.512,-1.512 0.928,-1.161 0.424,-0.657 0,0"
             inkscape:connector-curvature="0" /></g><g
           transform="translate(108.3555,74.8018)"
           id="g36"><path
             id="path38"
             style="fill:#5c5c5b;fill-opacity:1;fill-rule:nonzero;stroke:none"
             d="m 0,0 0,-3.526 2.387,0 0,-2.016 -2.387,0 0,-5.587 c 0,-0.525 0.127,-0.887 0.383,-1.084 0.256,-0.197 0.617,-0.296 1.084,-0.296 l 0.92,0 0,-1.993 -1.512,0 c -1.184,0 -2.045,0.263 -2.584,0.788 -0.541,0.526 -0.811,1.307 -0.811,2.344 l 0,5.828 -1.884,0 0,2.016 1.884,0 0,3.526 z"
             inkscape:connector-curvature="0" /></g><g
           transform="translate(112.8184,60.2998)"
           id="g40"><path
             id="path42"
             style="fill:#5c5c5b;fill-opacity:1;fill-rule:nonzero;stroke:none"
             d="m 0,0 0,10.976 2.346,0 0,-1.644 c 0.363,0.54 0.81,0.956 1.336,1.249 0.627,0.379 1.365,0.569 2.213,0.569 l 0.173,0 0,-2.234 -0.261,0 C 4.77,8.916 3.943,8.602 3.33,7.974 2.762,7.36 2.477,6.403 2.477,5.104 L 2.477,0 Z"
             inkscape:connector-curvature="0" /></g><g
           transform="translate(124.1426,60.7158)"
           id="g44"><path
             id="path46"
             style="fill:#5c5c5b;fill-opacity:1;fill-rule:nonzero;stroke:none"
             d="m 0,0 -4.316,10.56 2.584,0 2.98,-7.494 2.957,7.494 2.563,0 -6.112,-15.226 -2.541,0 z"
             inkscape:connector-curvature="0" /></g><g
           transform="translate(143.0605,62.0957)"
           id="g48"><path
             id="path50"
             style="fill:#5c5c5b;fill-opacity:1;fill-rule:nonzero;stroke:none"
             d="m 0,0 c 0.906,0 1.684,0.347 2.334,1.041 0.648,0.693 0.975,1.573 0.975,2.64 0,1.051 -0.327,1.93 -0.975,2.639 C 1.684,7.028 0.906,7.383 0,7.383 -0.891,7.383 -1.66,7.028 -2.311,6.32 -2.961,5.611 -3.285,4.732 -3.285,3.681 c 0,-1.067 0.324,-1.947 0.974,-2.64 C -1.66,0.347 -0.891,0 0,0 m 0,-2.06 c -1.605,0 -2.975,0.552 -4.107,1.655 -1.131,1.102 -1.698,2.465 -1.698,4.086 0,1.621 0.567,2.986 1.698,4.096 1.132,1.11 2.502,1.665 4.107,1.665 1.621,0 2.994,-0.555 4.119,-1.665 C 5.244,6.667 5.807,5.302 5.807,3.681 5.807,2.06 5.244,0.697 4.119,-0.405 2.994,-1.508 1.621,-2.06 0,-2.06"
             inkscape:connector-curvature="0" /></g><g
           transform="translate(151.5566,72.4355)"
           id="g52"><path
             id="path54"
             style="fill:#5c5c5b;fill-opacity:1;fill-rule:nonzero;stroke:none"
             d="m 0,0 c 0,1.022 0.289,1.801 0.865,2.334 0.576,0.532 1.457,0.799 2.641,0.799 l 1.205,0 0,-1.993 -0.723,0 C 3.52,1.14 3.158,1.041 2.902,0.844 2.646,0.646 2.52,0.285 2.52,-0.24 l 0,-0.92 2.191,0 0,-2.016 -2.191,0 0,-8.96 -2.52,0 0,8.96 -1.885,0 0,2.016 1.885,0 z"
             inkscape:connector-curvature="0" /></g><g
           transform="translate(164.1016,63.3887)"
           id="g56"><path
             id="path58"
             style="fill:#5c5c5b;fill-opacity:1;fill-rule:nonzero;stroke:none"
             d="M 0,0 1.686,1.708 C 2.139,0.744 2.709,0.036 3.395,-0.417 4.139,-0.913 4.893,-1.161 5.65,-1.161 c 0.805,0 1.491,0.211 2.061,0.635 0.568,0.409 0.853,0.949 0.853,1.621 0,0.598 -0.289,1.085 -0.865,1.457 C 7.123,2.924 6.498,3.242 5.826,3.505 5.154,3.753 4.453,4.023 3.723,4.315 2.555,4.739 1.719,5.294 1.215,5.98 0.711,6.667 0.459,7.39 0.459,8.149 c 0,1.183 0.504,2.195 1.512,3.035 1.008,0.839 2.242,1.259 3.703,1.259 1.533,0 2.781,-0.394 3.746,-1.183 0.496,-0.38 0.84,-0.803 1.029,-1.271 L 8.916,8.368 C 8.783,8.631 8.543,8.931 8.193,9.267 7.447,9.938 6.564,10.274 5.541,10.274 4.898,10.274 4.332,10.095 3.844,9.737 3.354,9.379 3.109,8.901 3.109,8.303 3.109,7.396 4.104,6.594 6.09,5.893 6.455,5.775 6.834,5.645 7.229,5.498 8.557,4.987 9.555,4.385 10.219,3.691 c 0.664,-0.694 0.996,-1.552 0.996,-2.574 0,-1.213 -0.518,-2.257 -1.555,-3.133 -1.021,-0.89 -2.344,-1.337 -3.965,-1.337 -1.49,0 -2.724,0.337 -3.703,1.008 C 1.043,-1.687 0.379,-0.906 0,0"
             inkscape:connector-curvature="0" /></g><g
           transform="translate(176.8477,65.7764)"
           id="g60"><path
             id="path62"
             style="fill:#5c5c5b;fill-opacity:1;fill-rule:nonzero;stroke:none"
             d="m 0,0 c 0,1.577 0.594,2.932 1.785,4.063 1.19,1.132 2.697,1.699 4.524,1.699 1.431,0 2.775,-0.46 4.031,-1.381 L 9.529,2.432 C 8.434,3.278 7.361,3.702 6.309,3.702 5.184,3.702 4.271,3.344 3.57,2.629 2.869,1.913 2.52,1.037 2.52,0 c 0,-1.037 0.349,-1.91 1.05,-2.618 0.701,-0.709 1.614,-1.063 2.739,-1.063 1.066,0 2.154,0.416 3.263,1.249 l 0.811,-1.95 C 9.172,-5.287 7.812,-5.74 6.309,-5.74 4.482,-5.74 2.975,-5.178 1.785,-4.053 0.594,-2.929 0,-1.577 0,0"
             inkscape:connector-curvature="0" /></g><path
           id="path64"
           style="fill:#5c5c5b;fill-opacity:1;fill-rule:nonzero;stroke:none"
           d="m 189.527,71.275 2.498,0 0,-10.976 -2.498,0 z m 2.827,3.089 c 0,-0.424 -0.157,-0.793 -0.471,-1.106 -0.315,-0.315 -0.69,-0.472 -1.129,-0.472 -0.438,0 -0.815,0.157 -1.127,0.472 -0.315,0.313 -0.473,0.682 -0.473,1.106 0,0.438 0.158,0.814 0.473,1.128 0.312,0.314 0.689,0.471 1.127,0.471 0.439,0 0.814,-0.157 1.129,-0.471 0.314,-0.314 0.471,-0.69 0.471,-1.128"
           inkscape:connector-curvature="0" /><g
           transform="translate(196.8613,66.6523)"
           id="g66"><path
             id="path68"
             style="fill:#5c5c5b;fill-opacity:1;fill-rule:nonzero;stroke:none"
             d="M 0,0 6.09,0 C 6.061,0.716 5.762,1.369 5.191,1.961 4.623,2.553 3.9,2.848 3.023,2.848 2.117,2.848 1.373,2.526 0.789,1.884 0.365,1.402 0.102,0.774 0,0 m 0.045,-1.972 c 0.144,-0.672 0.459,-1.219 0.941,-1.642 0.701,-0.644 1.629,-0.964 2.782,-0.964 1.212,0 2.345,0.445 3.396,1.336 l 0.744,-1.84 C 6.727,-6.104 5.324,-6.616 3.703,-6.616 c -1.855,0 -3.363,0.526 -4.523,1.578 -1.162,1.051 -1.743,2.432 -1.743,4.14 0,1.679 0.514,3.063 1.545,4.151 1.03,1.088 2.377,1.633 4.041,1.633 1.635,0 2.977,-0.541 4.02,-1.621 1.045,-1.081 1.566,-2.418 1.566,-4.01 0,-0.438 -0.035,-0.847 -0.109,-1.227 z"
             inkscape:connector-curvature="0" /></g><g
           transform="translate(210.0684,65.8203)"
           id="g70"><path
             id="path72"
             style="fill:#5c5c5b;fill-opacity:1;fill-rule:nonzero;stroke:none"
             d="m 0,0 0,-5.521 -2.477,0 0,10.976 2.389,0 0,-1.468 c 0.293,0.511 0.715,0.927 1.272,1.248 0.554,0.322 1.152,0.483 1.795,0.483 1.3,0 2.341,-0.443 3.123,-1.325 C 6.883,3.508 7.273,2.329 7.273,0.854 l 0,-6.375 -2.498,0 0,5.74 c 0,1.168 -0.189,2.033 -0.57,2.595 C 3.826,3.377 3.242,3.658 2.453,3.658 2.045,3.658 1.646,3.523 1.26,3.253 0.873,2.982 0.576,2.614 0.373,2.146 0.123,1.606 0,0.891 0,0"
             inkscape:connector-curvature="0" /></g><g
           transform="translate(219.4609,65.7764)"
           id="g74"><path
             id="path76"
             style="fill:#5c5c5b;fill-opacity:1;fill-rule:nonzero;stroke:none"
             d="m 0,0 c 0,1.577 0.596,2.932 1.785,4.063 1.192,1.132 2.699,1.699 4.526,1.699 1.429,0 2.773,-0.46 4.031,-1.381 L 9.531,2.432 C 8.436,3.278 7.361,3.702 6.311,3.702 5.186,3.702 4.273,3.344 3.572,2.629 2.871,1.913 2.52,1.037 2.52,0 c 0,-1.037 0.351,-1.91 1.052,-2.618 0.701,-0.709 1.614,-1.063 2.739,-1.063 1.064,0 2.154,0.416 3.263,1.249 l 0.811,-1.95 C 9.172,-5.287 7.814,-5.74 6.311,-5.74 4.484,-5.74 2.977,-5.178 1.785,-4.053 0.596,-2.929 0,-1.577 0,0"
             inkscape:connector-curvature="0" /></g><g
           transform="translate(233.873,66.6523)"
           id="g78"><path
             id="path80"
             style="fill:#5c5c5b;fill-opacity:1;fill-rule:nonzero;stroke:none"
             d="M 0,0 6.09,0 C 6.061,0.716 5.762,1.369 5.191,1.961 4.621,2.553 3.898,2.848 3.023,2.848 2.117,2.848 1.371,2.526 0.787,1.884 0.363,1.402 0.102,0.774 0,0 m 0.043,-1.972 c 0.146,-0.672 0.461,-1.219 0.941,-1.642 0.702,-0.644 1.629,-0.964 2.784,-0.964 1.212,0 2.343,0.445 3.394,1.336 l 0.746,-1.84 C 6.725,-6.104 5.322,-6.616 3.701,-6.616 c -1.853,0 -3.361,0.526 -4.523,1.578 -1.16,1.051 -1.742,2.432 -1.742,4.14 0,1.679 0.515,3.063 1.544,4.151 1.03,1.088 2.377,1.633 4.043,1.633 1.635,0 2.975,-0.541 4.02,-1.621 1.043,-1.081 1.566,-2.418 1.566,-4.01 0,-0.438 -0.037,-0.847 -0.109,-1.227 z"
             inkscape:connector-curvature="0" /></g><g
           transform="translate(246.2246,59.335)"
           id="g82"><path
             id="path84"
             style="fill:#5c5c5b;fill-opacity:1;fill-rule:nonzero;stroke:none"
             d="M 0,0 -0.109,0 C -0.547,0 -0.928,0.154 -1.248,0.461 -1.57,0.768 -1.73,1.14 -1.73,1.578 c 0,0.452 0.16,0.832 0.482,1.139 0.32,0.306 0.701,0.46 1.139,0.46 0.453,0 0.832,-0.146 1.138,-0.438 0.366,-0.35 0.549,-0.84 0.549,-1.468 0,-1.066 -0.264,-1.95 -0.789,-2.651 -0.512,-0.657 -1.096,-1.117 -1.754,-1.38 l -0.656,0.723 c 0.598,0.38 1.043,0.818 1.336,1.314 0.131,0.22 0.226,0.46 0.285,0.723"
             inkscape:connector-curvature="0" /></g><path
           id="path86"
           style="fill:#5c5c5b;fill-opacity:1;fill-rule:nonzero;stroke:none"
           d="m 255.541,75.568 2.564,0 0,-15.269 -2.564,0 z"
           inkscape:connector-curvature="0" /><g
           transform="translate(268.6602,62.1836)"
           id="g88"><path
             id="path90"
             style="fill:#5c5c5b;fill-opacity:1;fill-rule:nonzero;stroke:none"
             d="M 0,0 C 1.592,0 3.045,0.511 4.359,1.533 L 5.41,-0.329 C 4.053,-1.541 2.248,-2.147 0,-2.147 c -2.205,0 -4.072,0.755 -5.598,2.267 -1.525,1.512 -2.289,3.385 -2.289,5.619 0,2.249 0.764,4.13 2.289,5.642 1.526,1.512 3.393,2.267 5.598,2.267 2.221,0 3.994,-0.614 5.324,-1.84 L 4.293,9.945 C 2.994,10.982 1.562,11.501 0,11.501 -1.461,11.501 -2.709,10.961 -3.746,9.88 -4.797,8.755 -5.324,7.375 -5.324,5.739 -5.324,4.104 -4.797,2.73 -3.746,1.621 -2.709,0.54 -1.461,0 0,0"
             inkscape:connector-curvature="0" /></g><g
           transform="translate(282.5664,73.4219)"
           id="g92"><path
             id="path94"
             style="fill:#5c5c5b;fill-opacity:1;fill-rule:nonzero;stroke:none"
             d="m 0,0 0,-13.122 -2.563,0 0,13.122 -4.666,0 0,2.146 11.895,0 0,-2.146 z"
             inkscape:connector-curvature="0" /></g><g
           transform="translate(72.1973,35.1279)"
           id="g96"><path
             id="path98"
             style="fill:#5c5c5b;fill-opacity:1;fill-rule:nonzero;stroke:none"
             d="m 0,0 c 0.643,0 1.277,0.157 1.906,0.472 0.627,0.313 1.08,0.674 1.358,1.084 l 0,1.862 -2.213,0 C -0.205,3.418 -1.08,3.257 -1.578,2.936 -2.059,2.57 -2.301,2.133 -2.301,1.621 -2.301,1.154 -2.096,0.767 -1.687,0.46 -1.277,0.153 -0.715,0 0,0 m 0.68,5.367 2.584,0 C 3.264,6.083 2.986,6.62 2.432,6.978 1.877,7.336 1.074,7.515 0.021,7.515 l -0.064,0 c -0.994,0 -2.045,-0.235 -3.156,-0.702 L -3.834,8.764 C -2.68,9.26 -1.41,9.516 -0.021,9.53 l 0.042,0 C 1.861,9.53 3.275,9.176 4.262,8.468 5.246,7.759 5.74,6.631 5.74,5.083 l 0,-6.791 -2.367,0 0,1.204 C 2.906,-0.971 2.334,-1.332 1.654,-1.588 0.975,-1.844 0.285,-1.972 -0.416,-1.972 c -1.314,0 -2.377,0.348 -3.188,1.041 -0.81,0.694 -1.216,1.544 -1.216,2.552 0,1.125 0.504,2.052 1.511,2.782 0.936,0.643 2.264,0.964 3.989,0.964"
             inkscape:connector-curvature="0" /></g><g
           transform="translate(83.2988,38.9404)"
           id="g100"><path
             id="path102"
             style="fill:#5c5c5b;fill-opacity:1;fill-rule:nonzero;stroke:none"
             d="m 0,0 0,-5.521 -2.475,0 0,10.976 2.389,0 0,-1.468 C 0.205,4.498 0.629,4.914 1.184,5.235 1.738,5.557 2.338,5.718 2.98,5.718 4.279,5.718 5.32,5.275 6.102,4.393 6.883,3.508 7.273,2.329 7.273,0.854 l 0,-6.375 -2.496,0 0,5.74 c 0,1.168 -0.191,2.033 -0.57,2.595 C 3.826,3.377 3.242,3.658 2.455,3.658 2.045,3.658 1.646,3.523 1.26,3.253 0.873,2.982 0.578,2.614 0.373,2.146 0.125,1.606 0,0.891 0,0"
             inkscape:connector-curvature="0" /></g><g
           transform="translate(101.4141,38.1953)"
           id="g104"><path
             id="path106"
             style="fill:#5c5c5b;fill-opacity:1;fill-rule:nonzero;stroke:none"
             d="m 0,0 c 0.043,0.481 0.043,0.949 0,1.402 -0.088,0.832 -0.395,1.526 -0.922,2.081 -0.584,0.614 -1.307,0.92 -2.168,0.92 -0.965,0 -1.722,-0.354 -2.279,-1.062 -0.555,-0.709 -0.832,-1.588 -0.832,-2.64 0,-1.066 0.277,-1.946 0.832,-2.639 0.557,-0.695 1.314,-1.041 2.279,-1.041 0.861,0 1.584,0.306 2.168,0.919 C -0.395,-1.505 -0.088,-0.818 0,0 m -3.33,6.463 c 1.299,0 2.416,-0.526 3.351,-1.577 l 0,5.607 2.497,0 0,-15.268 -2.409,0 0,1.379 c -0.92,-1.095 -2.068,-1.643 -3.439,-1.643 -1.607,0 -2.908,0.57 -3.9,1.709 -0.995,1.14 -1.491,2.482 -1.491,4.031 0,1.548 0.496,2.895 1.491,4.042 0.992,1.147 2.293,1.72 3.9,1.72"
             inkscape:connector-curvature="0" /></g><g
           transform="translate(115.9961,33.4199)"
           id="g108"><path
             id="path110"
             style="fill:#5c5c5b;fill-opacity:1;fill-rule:nonzero;stroke:none"
             d="m 0,0 -2.564,0 0,15.269 9.683,0 0,-2.125 -7.119,0 0,-4.425 6.922,0 0,-2.104 -6.922,0 z"
             inkscape:connector-curvature="0" /></g><g
           transform="translate(132.8379,38.874)"
           id="g112"><path
             id="path114"
             style="fill:#5c5c5b;fill-opacity:1;fill-rule:nonzero;stroke:none"
             d="m 0,0 0,5.521 2.496,0 0,-10.975 -2.387,0 0,1.445 c -0.306,-0.54 -0.716,-0.949 -1.226,-1.226 -0.6,-0.322 -1.221,-0.483 -1.863,-0.483 -1.286,0 -2.319,0.439 -3.1,1.315 -0.781,0.877 -1.172,2.059 -1.172,3.549 l 0,6.375 2.475,0 0,-5.761 c 0,-1.155 0.193,-2.013 0.582,-2.574 0.386,-0.563 0.974,-0.844 1.763,-0.844 0.393,0 0.787,0.135 1.182,0.405 0.395,0.271 0.693,0.632 0.898,1.085 C -0.117,-1.628 0,-0.905 0,0"
             inkscape:connector-curvature="0" /></g><g
           transform="translate(141.4219,47.9219)"
           id="g116"><path
             id="path118"
             style="fill:#5c5c5b;fill-opacity:1;fill-rule:nonzero;stroke:none"
             d="m 0,0 0,-3.526 2.387,0 0,-2.016 -2.387,0 0,-5.587 c 0,-0.525 0.127,-0.887 0.383,-1.084 0.256,-0.197 0.617,-0.296 1.084,-0.296 l 0.92,0 0,-1.993 -1.512,0 c -1.184,0 -2.045,0.263 -2.584,0.788 -0.541,0.526 -0.811,1.307 -0.811,2.344 l 0,5.828 -1.884,0 0,2.016 1.884,0 0,3.526 z"
             inkscape:connector-curvature="0" /></g><g
           transform="translate(153.1367,38.874)"
           id="g120"><path
             id="path122"
             style="fill:#5c5c5b;fill-opacity:1;fill-rule:nonzero;stroke:none"
             d="m 0,0 0,5.521 2.498,0 0,-10.975 -2.389,0 0,1.445 c -0.306,-0.54 -0.714,-0.949 -1.226,-1.226 -0.6,-0.322 -1.219,-0.483 -1.862,-0.483 -1.285,0 -2.32,0.439 -3.101,1.315 -0.781,0.877 -1.172,2.059 -1.172,3.549 l 0,6.375 2.477,0 0,-5.761 c 0,-1.155 0.193,-2.013 0.58,-2.574 0.386,-0.563 0.974,-0.844 1.763,-0.844 0.395,0 0.789,0.135 1.184,0.405 0.394,0.271 0.693,0.632 0.898,1.085 C -0.117,-1.628 0,-0.905 0,0"
             inkscape:connector-curvature="0" /></g><g
           transform="translate(158.5215,33.4199)"
           id="g124"><path
             id="path126"
             style="fill:#5c5c5b;fill-opacity:1;fill-rule:nonzero;stroke:none"
             d="m 0,0 0,10.976 2.346,0 0,-1.644 c 0.363,0.54 0.81,0.956 1.336,1.249 0.627,0.379 1.365,0.569 2.213,0.569 l 0.173,0 0,-2.234 -0.261,0 C 4.77,8.916 3.943,8.602 3.33,7.974 2.762,7.36 2.477,6.403 2.477,5.104 L 2.477,0 Z"
             inkscape:connector-curvature="0" /></g><g
           transform="translate(167.916,39.7725)"
           id="g128"><path
             id="path130"
             style="fill:#5c5c5b;fill-opacity:1;fill-rule:nonzero;stroke:none"
             d="M 0,0 6.09,0 C 6.061,0.716 5.762,1.369 5.191,1.961 4.623,2.553 3.9,2.848 3.023,2.848 2.117,2.848 1.373,2.526 0.789,1.884 0.365,1.402 0.102,0.774 0,0 m 0.045,-1.972 c 0.144,-0.672 0.459,-1.219 0.941,-1.642 0.701,-0.644 1.629,-0.964 2.782,-0.964 1.212,0 2.345,0.445 3.396,1.336 l 0.744,-1.84 C 6.727,-6.104 5.324,-6.616 3.703,-6.616 c -1.855,0 -3.363,0.526 -4.523,1.578 -1.162,1.051 -1.743,2.432 -1.743,4.14 0,1.679 0.514,3.063 1.545,4.151 1.03,1.088 2.377,1.633 4.041,1.633 1.635,0 2.977,-0.541 4.02,-1.621 1.045,-1.081 1.566,-2.418 1.566,-4.01 0,-0.438 -0.035,-0.847 -0.109,-1.227 z"
             inkscape:connector-curvature="0" /></g><g
           transform="translate(193.1445,43.8477)"
           id="g132"><path
             id="path134"
             style="fill:#5c5c5b;fill-opacity:1;fill-rule:nonzero;stroke:none"
             d="m 0,0 c 0,0.847 -0.289,1.512 -0.865,1.993 -0.576,0.483 -1.53,0.723 -2.86,0.723 l -1.818,0 0,-5.433 1.818,0 c 1.33,0 2.284,0.244 2.86,0.735 C -0.289,-1.494 0,-0.833 0,0 m 2.586,0 c 0,-1.417 -0.498,-2.578 -1.49,-3.483 -0.994,-0.907 -2.41,-1.359 -4.25,-1.359 l -2.389,0 0,-5.586 -2.541,0 0,15.269 4.93,0 c 1.84,0 3.256,-0.452 4.25,-1.358 C 2.088,2.577 2.586,1.416 2.586,0"
             inkscape:connector-curvature="0" /></g><path
           id="path136"
           style="fill:#5c5c5b;fill-opacity:1;fill-rule:nonzero;stroke:none"
           d="m 197.937,48.688 2.477,0 0,-15.269 -2.477,0 z"
           inkscape:connector-curvature="0" /><g
           transform="translate(207.4199,35.1279)"
           id="g138"><path
             id="path140"
             style="fill:#5c5c5b;fill-opacity:1;fill-rule:nonzero;stroke:none"
             d="m 0,0 c 0.643,0 1.277,0.157 1.906,0.472 0.627,0.313 1.08,0.674 1.358,1.084 l 0,1.862 -2.213,0 C -0.205,3.418 -1.08,3.257 -1.578,2.936 -2.059,2.57 -2.301,2.133 -2.301,1.621 -2.301,1.154 -2.096,0.767 -1.687,0.46 -1.277,0.153 -0.715,0 0,0 m 0.68,5.367 2.584,0 C 3.264,6.083 2.986,6.62 2.432,6.978 1.877,7.336 1.074,7.515 0.021,7.515 l -0.064,0 c -0.994,0 -2.045,-0.235 -3.156,-0.702 L -3.834,8.764 C -2.68,9.26 -1.41,9.516 -0.021,9.53 l 0.042,0 C 1.861,9.53 3.275,9.176 4.262,8.468 5.246,7.759 5.74,6.631 5.74,5.083 l 0,-6.791 -2.367,0 0,1.204 C 2.906,-0.971 2.334,-1.332 1.654,-1.588 0.975,-1.844 0.285,-1.972 -0.416,-1.972 c -1.314,0 -2.377,0.348 -3.188,1.041 -0.81,0.694 -1.216,1.544 -1.216,2.552 0,1.125 0.504,2.052 1.511,2.782 0.936,0.643 2.264,0.964 3.989,0.964"
             inkscape:connector-curvature="0" /></g><g
           transform="translate(218.5234,38.9404)"
           id="g142"><path
             id="path144"
             style="fill:#5c5c5b;fill-opacity:1;fill-rule:nonzero;stroke:none"
             d="m 0,0 0,-5.521 -2.477,0 0,10.976 2.389,0 0,-1.468 c 0.293,0.511 0.715,0.927 1.272,1.248 0.554,0.322 1.152,0.483 1.795,0.483 1.3,0 2.341,-0.443 3.123,-1.325 C 6.883,3.508 7.273,2.329 7.273,0.854 l 0,-6.375 -2.498,0 0,5.74 c 0,1.168 -0.189,2.033 -0.57,2.595 C 3.826,3.377 3.242,3.658 2.453,3.658 2.045,3.658 1.646,3.523 1.26,3.253 0.873,2.982 0.576,2.614 0.373,2.146 0.123,1.606 0,0.891 0,0"
             inkscape:connector-curvature="0" /></g><g
           transform="translate(231.1582,38.9404)"
           id="g146"><path
             id="path148"
             style="fill:#5c5c5b;fill-opacity:1;fill-rule:nonzero;stroke:none"
             d="m 0,0 0,-5.521 -2.475,0 0,10.976 2.389,0 0,-1.468 C 0.205,4.498 0.629,4.914 1.184,5.235 1.738,5.557 2.338,5.718 2.98,5.718 4.279,5.718 5.32,5.275 6.102,4.393 6.883,3.508 7.273,2.329 7.273,0.854 l 0,-6.375 -2.496,0 0,5.74 c 0,1.168 -0.191,2.033 -0.57,2.595 C 3.826,3.377 3.242,3.658 2.455,3.658 2.045,3.658 1.646,3.523 1.26,3.253 0.873,2.982 0.578,2.614 0.373,2.146 0.125,1.606 0,0.891 0,0"
             inkscape:connector-curvature="0" /></g><path
           id="path150"
           style="fill:#5c5c5b;fill-opacity:1;fill-rule:nonzero;stroke:none"
           d="m 241.387,44.396 2.496,0 0,-10.976 -2.496,0 z m 2.824,3.088 c 0,-0.423 -0.156,-0.793 -0.471,-1.106 -0.314,-0.315 -0.689,-0.472 -1.127,-0.472 -0.439,0 -0.814,0.157 -1.129,0.472 -0.314,0.313 -0.47,0.683 -0.47,1.106 0,0.438 0.156,0.814 0.47,1.128 0.315,0.314 0.69,0.471 1.129,0.471 0.438,0 0.813,-0.157 1.127,-0.471 0.315,-0.314 0.471,-0.69 0.471,-1.128"
           inkscape:connector-curvature="0" /><g
           transform="translate(249.3984,38.9404)"
           id="g152"><path
             id="path154"
             style="fill:#5c5c5b;fill-opacity:1;fill-rule:nonzero;stroke:none"
             d="m 0,0 0,-5.521 -2.475,0 0,10.976 2.389,0 0,-1.468 C 0.205,4.498 0.629,4.914 1.184,5.235 1.738,5.557 2.338,5.718 2.98,5.718 4.279,5.718 5.32,5.275 6.102,4.393 6.883,3.508 7.273,2.329 7.273,0.854 l 0,-6.375 -2.496,0 0,5.74 c 0,1.168 -0.191,2.033 -0.57,2.595 C 3.826,3.377 3.242,3.658 2.455,3.658 2.045,3.658 1.646,3.523 1.26,3.253 0.873,2.982 0.578,2.614 0.373,2.146 0.125,1.606 0,0.891 0,0"
             inkscape:connector-curvature="0" /></g><g
           transform="translate(267.5137,38.1738)"
           id="g156"><path
             id="path158"
             style="fill:#5c5c5b;fill-opacity:1;fill-rule:nonzero;stroke:none"
             d="m 0,0 c 0.043,0.496 0.043,0.978 0,1.445 -0.088,0.833 -0.395,1.527 -0.922,2.081 -0.584,0.614 -1.307,0.92 -2.168,0.92 -0.965,0 -1.722,-0.357 -2.279,-1.073 -0.555,-0.716 -0.832,-1.599 -0.832,-2.65 0,-1.067 0.277,-1.951 0.832,-2.652 0.557,-0.7 1.314,-1.05 2.279,-1.05 0.861,0 1.584,0.306 2.168,0.919 C -0.395,-1.505 -0.088,-0.818 0,0 m -3.463,-9.114 c -1.68,0 -3.117,0.417 -4.314,1.249 l 0.744,1.993 c 1.109,-0.817 2.301,-1.227 3.57,-1.227 1.109,0 1.983,0.315 2.619,0.943 0.635,0.628 0.953,1.336 0.953,2.125 l 0,0.657 c -0.906,-1.096 -2.052,-1.644 -3.439,-1.644 -1.607,0 -2.908,0.571 -3.9,1.709 -0.995,1.14 -1.491,2.483 -1.491,4.032 0,1.548 0.496,2.894 1.491,4.042 0.992,1.146 2.293,1.719 3.9,1.719 1.299,0 2.416,-0.526 3.351,-1.577 l 0,1.315 2.497,0 0,-9.115 C 2.518,-4.98 2,-6.54 0.963,-7.569 -0.074,-8.599 -1.549,-9.114 -3.463,-9.114"
             inkscape:connector-curvature="0" /></g><g
           transform="translate(195.5488,150.3809)"
           id="g160"><path
             id="path162"
             style="fill:#194067;fill-opacity:1;fill-rule:nonzero;stroke:none"
             d="m 0,0 c -8.615,5.855 -19.646,3.467 -25.437,-5.34 -4.838,-7.353 -12.139,-8.267 -14.969,-8.267 -9.213,0 -15.52,6.48 -17.389,13.189 l -0.004,0 c -0.017,0.066 -0.031,0.121 -0.051,0.186 -0.017,0.074 -0.041,0.15 -0.056,0.23 -0.735,2.795 -0.916,4.135 -0.916,7.109 0,16.039 16.453,33.899 40.158,33.899 24.273,0 38.162,-18.479 41.738,-28.746 -0.062,0.178 -0.117,0.357 -0.181,0.545 -6.887,20.084 -25.936,34.525 -48.358,34.525 -28.223,0 -51.109,-22.879 -51.109,-51.107 0,-25.231 18.199,-46.83 43.441,-46.83 20.133,0 33.662,11.289 39.869,26.845 C 10.143,-15.254 7.73,-5.254 0,0"
             inkscape:connector-curvature="0" /></g><g
           transform="translate(218.9414,161.6426)"
           id="g164"><path
             id="path166"
             style="fill:#e41e37;fill-opacity:1;fill-rule:nonzero;stroke:none"
             d="m 0,0 c -2.984,10.018 -16.979,29.744 -42.057,29.744 -23.705,0 -40.158,-17.859 -40.158,-33.898 0,-2.975 0.182,-4.315 0.916,-7.11 -0.31,1.221 -0.472,2.45 -0.472,3.645 0,16.705 16.726,28.279 33.919,28.279 23.276,0 42.143,-18.869 42.143,-42.139 0,-18.244 -10.498,-34.033 -25.754,-41.621 l 0.004,-0.011 C -11.793,-55.99 2.248,-37.158 2.248,-15.039 2.248,-9.805 1.545,-5.189 0,0"
             inkscape:connector-curvature="0" /></g></g></g></g></svg>