<?xml version="1.0" encoding="utf-8"?>
<!-- Generator: Adobe Illustrator 19.2.1, SVG Export Plug-In . SVG Version: 6.00 Build 0)  -->
<svg version="1.1" id="layer" xmlns="http://www.w3.org/2000/svg" xmlns:xlink="http://www.w3.org/1999/xlink" x="0px" y="0px"
	 viewBox="0 0 652 652" style="enable-background:new 0 0 652 652;" xml:space="preserve">
<style type="text/css">
	.st0{fill:#E31D2D;}
</style>
<g>
	<path class="st0" d="M303.4,331.8l11.5-20v-2.6h-3.3c-2.5,4.9-5.4,9.5-8.2,14.1c-4.4,7.2-8.5,14.6-11.5,22.5h3.6 M264,404.5
		c0.3-0.8,0.5-1.3,1-2.1c1.3-2,3.1-7.4-1-7.7h-0.8c-1.8,5.9-4.9,11-8.4,16.1c-5.6,8.2-12.3,15.9-17.7,23.8c-3.3,4.9-6.1,10-7.7,15.1
		c2.1,0.8,1,3.9,2.6,5.1c1.3-3.8,3.1-7.4,5.1-11c4.9-8.4,11.5-16.4,17.7-24.8C258.1,414.5,261.4,409.6,264,404.5 M395.1,453.6
		l-21.8,7.2V459l0.8-14.6c0-1.8,2.8-0.8,5.4-0.5c-1.5-4.1-3.6-7.9-6.2-11.8c-1.3-2-2.5-4.1-3.8-6.2c-2.8-4.3-5.9-8.7-8-13.3
		l-1.8,2.6l2.6,30.7l6.7-0.7c0.2,0.7,0.5,1.5,0.5,2.3c0.8,4.4,0.5,8.7,0,14.1v0.8l-31.8,9.5l-0.8-16.1l5.9-0.8
		c0.5-25.1-1.3-52.2-4.4-76.1l-5.9-1c1.5-5.9-3.6-15.9,4.3-17.7c9.2-1.5,17.2-5.6,26.1-7.7l1.8,16.9c-1.8,0-3.1,0.8-5.1,1.1
		c-2,9-0.2,18.4,1.8,26.9l8-18.2l3.8-8.7l0.8-1.8l-0.8-1.3c-1-0.8-2.5-0.5-3.8-0.2l-1.3-0.3v-15.1l1.3-0.5c1.3-0.3,2.5-0.8,3.8-1.3
		c7.4-2.8,13.8-6.4,21.8-8.2c1.5-0.5,3.4-0.8,5.4-1l0.8,17.7c-3.8-0.5-4.6,3.1-6.2,5.6c-0.7,0.7-1.3,1.5-2.3,2l-13.6,36.4
		c4.8,9.2,9.5,19.7,15.9,27.9c1.5,2.3,3.4,4.1,5.4,5.9l5.9-0.5l0.3,13.8L395.1,453.6z M318.3,438.8l-2-40.2l-0.5-7.9l0.5-0.5
		c1-1.3,2.3-1.6,3.8-1.3l2.3,49.2l0.3,0.8H318.3z M303.4,488.2c-7.2,3.9-16.6,4.6-24.8,1.8c-6.4-2.1-12-6.7-14.3-13.3l-0.3-1
		c-1-2.3-3.1-4.1-2.6-7.2l2.6-0.7l14.6-3.8l1.6-0.5c2,3.3,0.8,8.7,5.9,10.2c3.9,0.8,7.2-0.8,8.5-4.4l-2.6-76
		c-3.6-2.6-6.1,1.5-7.4-3.3v-3.6c3.3-1.3,0.3-6.7,2.5-9.2c5.1-1.8,10.8-4.1,16.4-6.2c4.1-1.3,8.2-2.3,12.3-3.1l0.5,8.4l0.2,8.4
		l-0.2-0.2c-1.8-0.3-2.8,1.8-4.6,1c-1.8,29.7,2.8,58.6,2.3,88.9C312.7,480.8,308.8,485.1,303.4,488.2 M411,452.9l-1.3-21.3
		c-1-0.2-1.8,0-2.8,0c-2.3,0.3-4.7,0.8-6.4-0.2c-2-2.5-3.9-4.8-5.4-7.4c-4.8-6.9-9-14.6-11.5-22.3l9.2-25.4c1-0.8,1.6-1.8,2.3-2.8
		c2.3-4.9,2-12.6,9.5-12.6c0.8-8.4-1-15.9-1.5-23.6c-2.5-1.3-5.4-2.5-7.9-3.8c-5.9-2.3-12.5-4.6-19.2-4.9l-2.6,1l-3.8,1l-47.1,15.1
		l-6.1,2.1l-10.3,3.3c-1.5,0.5-2.3,1.8-2.6,3.1v3.1c0,0.8,0.3,1.8,0.5,2.8l-0.5-0.3c-8.2-4.3-16.4-2.8-24.8-0.5
		c-4.8,1.6-9.7,3.3-14.6,4.7c-1.8,0.5-3.3,1-4.9,1.3c-0.5,6.9,0.3,14.6,1.5,20.2l3.3,2.3l7.7,5.4c0.5,20.5,2.3,41.7,1.8,61.7
		c-3.3-2.1-6.4-2.8-9.5-2.8c-3.1,0.2-6.1,1-9.2,2.1c-3.6,1.3-7.2,2.8-10.8,3.3c-0.3,11.3,4.6,22.3,10.8,28.1c2,2.1,4.3,3.3,6.4,3.9
		c1,0.5,1.8,1,2.8,1.5c4.1,2.1,9.2,3.6,14.6,4.4c8.5,1,17.4,0.3,24.8-3.1c5.4-2.3,10-6.2,12.8-11.5c1.8-3.3,2.8-7.4,2.8-12.3
		c1.3,0.3,2.3,0.8,3.3,1c5.6,2.6,9.8,7.7,17.2,5.9l30-9.5l3.8-1.3l21.8-6.7l11.8-3.8L411,452.9z M481.7,519.5
		c-0.8-0.5-1.8-1-3.1-1.5c-3.6-0.2-8.5-1-13.1-1.8c-1.8-0.3-3.6-0.5-5.1-0.8c-1.8-2-2.8-4.6-3.6-7.2c-0.8-3.3-1-7.2-1.3-11.3
		c-1.5-1.8-3.6-3.1-5.1-3.1c-1.5,0.8-2.5,1.8-3.6,3.1c-1.5,2.1-2.5,4.4-3.9,6.7c1.3,1,2.6,1.8,3.9,2.5c0.8,0.3,1.8,0.8,2.3,1.6
		c2.8,2.8,2.3,3.8,2.3,5.4c-1.8-0.3-3.3-1-4.6-2.6c-0.5-0.7-1.3-1.5-1.8-2.5c-1.3-1.3-2.6-1.8-3.8-2.8c-1.3,1-2.6,1.8-3.6,2.8
		c-1.3,1.3-2.1,2.5-3.1,4.1c-0.3,1.8,0,3.6,3.1,4.9c0.8,0.3,1.3,0.3,2.3,0.5c0.8-0.2,1.3-0.5,2.1-0.8c1.5,1.5,3.3,3.1,4.9,4.6
		c3.4,2.8,6.7,5.4,10,7.7c1.5,1,2.8,1.8,4.4,2.6c1.3,1.5,1.3,2.8,0.5,4.4c1.3,1.3,2.5,2.3,3.8,3.6l1.5,1c2.3-2.5,4.6-5.3,6.9-8.2
		c-1.3-1.6-2.8-2.8-4.1-4.4c-1.5,0.3-2.5,0-3.6-0.7l-0.8-0.8c-0.5-0.5-1.3-1.3-2-2.1c0.5-0.5,1.3-1,2-1c1.3-0.2,2.8,0.3,4.9,1.5
		c0,0.8,1,0.5,0.7,1.6c2.1,1.5,3.1,3.1,5.2,4.6c1.3-2.8,3.3-5.4,5.4-7.2l0.3-0.3l0.3-0.5c0.8-1.3,0.8-2.1,0-3.1L481.7,519.5z
		 M499.9,477.2l-0.2,0.2c-0.3,1-0.8,1.5-1.5,1.8c-0.5,0.3-1.5,0-2.6-0.3l-0.5-0.3l-8.2-3.1c-1.3-0.5-2-1-2.6-1.8
		c-0.3-0.5-0.3-1.3,0-2.3c0.2-0.8,0.8-1.2,1.5-1.5c0.8-0.3,1.8,0,3.1,0.5l6.6,2.6l1.5,0.5c1.3,0.5,2,1,2.6,1.8l0.2,0.2V477.2z
		 M503,470.1c-0.5-0.5-1.5-1.1-3.1-1.8l-0.8-0.2l-3.6-1.3l-4.3-1.8c-2.1-0.5-3.3-1-4.4-1.3c-0.8,0-1.8,0-2.6,0.3
		c-0.8,0.3-1.3,0.5-2,1.3l-0.5,0.8h-0.3c-0.8,0.8-1.3,2.1-2,3.8c-0.8,1.8-1,3.4-1,4.4c0,1.3,0.3,2.6,0.8,3.3c0.3,0.8,1,1.3,1.8,1.8
		l0.8,0.5l0.5,0.5c0.8,0.3,1.5,0.5,2.6,1l7.9,3.1c1,0.3,2.1,0.6,2.8,0.8l1.5,0.5c1,0,1.8,0,2.6-0.3h0.2c0.8-0.5,1.8-1,2.6-2
		c0.8-0.7,1.6-2.3,2-3.8c0.8-1.8,1-3.3,1-4.4c0-1.3-0.3-2.5-0.8-3.3C504.5,471.1,503.7,470.5,503,470.1 M517,414
		c-0.3-1.6-1-2.8-1.8-4.1l-11.5-0.3l-0.2,8.2h4.3v-2.3h0.8c1.5,0,2.3,0.3,3.1,0.5c0.5,0.5,0.8,1.3,0.8,2.3c0,0.7-0.3,1.5-1,2.1
		c-0.5,0.3-1.5,0.5-2.8,0.5l-8.7-0.2h-0.2c-1.3,0-2.3-0.3-2.8-0.6c-0.5-0.5-0.8-1.3-0.8-2.3c0-0.8,0.3-1.5,0.8-1.8
		c0.5-0.5,1.6-0.8,2.6-0.8h0.3v-5.6h-6.9c-0.5,1.3-1,2.6-1.5,4.2c-0.3,1.2-0.5,2.5-0.5,4.1c0,2.1,0.3,3.6,0.8,4.9
		c0.5,1.3,1.3,2.3,2.3,2.8c0.5,0.5,1,0.8,1.8,0.8h0.3c0.8,0.3,2.1,0.5,4.1,0.5h8.4c2.1,0,3.4,0,4.4-0.3c0.8,0,1.8-0.5,2.3-1
		c1-0.5,1.5-1.5,2-2.6c0.3-1.3,0.5-2.8,0.5-4.6C517.8,416.8,517.5,415.2,517,414 M482.2,511l-0.5,0.5l0.5,0.5l4.6,4.9l3.6-3.1
		l-5.1-5.7L482.2,511z M395.1,503.3c-6.9,4.9-14.1,9-21.8,12.1c-1.3,0.5-2.5,1-3.8,1.6c-14.9,5.6-30.7,7.7-47.1,6.6
		c-2-0.3-4.1-0.3-6.1-0.5c-2.6-0.3-4.9-0.8-7.2-1.3c-2-0.3-3.9-0.8-5.6-1.3c-8.5-2.3-16.9-5.1-24.8-8.7c-5.1-2.6-10-5.3-14.6-8.7
		c-3.3-2.3-6.4-4.8-9.2-7.7c-3.9-3.8-7.7-8.2-11-13.3c-2.6-3.3-4.9-6.9-6.7-10.5c-3.3-5.6-6.1-11.5-9.5-16.6
		c-1.8-5.9-3.6-12-4.9-18.7c-2.8-15.1-3.3-31.5,0-46.6c1-4.4,2.3-8.5,4.1-12.5c3.3-6.4,6.2-13.6,10.2-20.2c3.1-5.6,6.9-11,11.8-15.4
		c1.5,12.5,1.5,26.6,1.8,38.7c2.3-6.1,3.6-11.8,4.1-16.9c1.3-12-0.5-21.5,1.3-27.9c0.8-1.8,1.8-2,2.6-3.8c1.5-2.6,3.3-4.6,5.4-6.2
		c0.8-0.5,1.8-1.3,2.6-1.5c4.1-2.3,7.9-4.4,12-6.4c7.9-3.6,16.4-6.9,24.8-9.2c4.1-1,8.5-2.1,12.8-2.6c2-0.5,4.1-0.8,6.1-0.8
		c8.7-0.8,17.4-0.5,26.4,1c6.9,1.3,13.8,3.3,20.8,5.9c1.3,0.5,2.5,1,3.8,1.8c7.4,3.1,14.9,6.9,21.8,11.5c4.1,2.8,7.9,6.1,11.8,9.5
		c3.6,3.3,6.9,6.9,10,10.5c2.8,3.6,5.4,6.9,7.4,10.8c1.8,3.1,3.6,6.2,4.9,9.5c3.8,6.2,6.6,13.1,8.4,20.2c4.6,16.7,4.1,35.1,0,52.5
		c-2.8,12-7.5,23.6-13.3,33.5c-0.8,1.6-1.8,3.1-2.8,4.6c-1.3,2-3.1,4.1-4.6,6.1c-3.1,3.8-6.4,7.7-10,11
		C403.1,496.9,399.2,500.2,395.1,503.3 M403.1,532c1.3-0.5,2.5-1.3,3.9-1.8c3.6-2.4,7.1-5.2,10-8l1.2-1.3l-1.2-2l-4.6-7.2l4.6-5.1
		l5.6-5.9l1.8,2.3l4.1,4.4c3.9,0.7,6.7-2.1,9.2-5.4c1.8-2.6,3.6-5.4,5.1-7.2c-1.5-1.8-3.3-3.3-5.1-5.1c-1.5-1.5-2.8-3.1-3.3-5.1
		l3.3-3.8l5.1-5.9c1.3,0.2,2.8,1.3,4.1,2.1c2.3,1.3,4.9,2.6,6.9,1.8l3.1-7.2l3.6-8.2l-3.6-2.3l-8.2-5.4l4.1-12.5
		c1.3-0.3,2.6,0,4.1,0.2c3.1,0.8,6.7,1.8,8.7,1.8h0.5l3.3-16.2l-3.8-1.5l-8.7-3.1l-1.3-0.8c-0.5-3.3,0-7.7,1.3-11
		c0.5-0.8,0.8-1.5,1.2-2c2.6-1.3,5.7-0.8,7.5-1c1,0,1.5-0.3,1.5-1l0.3-18h-9l-1.5,0.2c-4.9,0.5-3.6-6.7-4.9-12
		c1.3-1.8,3.1-2,4.9-2.5c1-0.3,2-0.5,2.8-1c4.9-4.3-1.8-11.5-2.5-17.7h-0.3c-3.6,0-6.9,0.5-10,1.5c-0.8,0.2-1.5,0.5-2.3,1
		c-4.3-3.6-4.9-9-6.9-13.6l8.4-8.5c-1.3-4.6-5.1-8.7-8.4-12l-1.5-1.5l-9.5,5.9c-0.7-0.8-1.5-1.5-2.3-2.3c-2.5-2.6-5.1-4.9-6.9-7.9
		l5.9-7.4c-2.1-2.1-4.1-4.4-6.4-6.7c-2.1-2.3-4.6-4.1-7.2-5.4l-2.8,3.1l-3.9,3.9c-3.1-0.5-5.6-2.3-7.9-4.1c-1.3-1-2.6-2.1-4.1-2.8
		c0.3-3.8,2.8-6.9,2.6-11l-15.1-5.9l-5.2,8.2l-1.8,2.8c-0.8-0.2-1.3-0.2-2-0.5c-3.3-1-5.9-2.6-8.5-3.6l-1-0.5
		c-3.1-1.3,0.2-6.7,0.5-11.5l-17.7-2.5c-0.8,2.8,0.5,9.5-2.8,9.5l-13.3,0.2c-3.3,0-2-7.4-1.8-11.3c-0.8,0.3-1.5,0.5-2.6,0.5
		c-2,0.2-4.1,0.2-6.1,0.2c-3.1,0-6.2,0-9,0.8l-0.8,12.8l-3.1,0.5l-7.9,1.3l-5.1-9.5c-4.4,1-7.9,2.8-11.8,4.8c-2,1.1-3.8,2.1-6.1,2.8
		c-0.3,2.6,0.3,4.9,1.8,6.9c4.4,6.1-4.3,6.9-7.7,9.2c-1,0.5-1.8,0.5-2.6,0.3c-2.6-0.8-3.1-6.1-5.9-7.9c-1,0.5-2.3,1-3.3,1.5
		c-4.1,2-8,4.9-11.8,7.9c0.8,4.1,6.2,9.7,4.1,13.5c-0.8,1.6-5.1,4.1-7.2,4.9c-1,0.5-2.1,0.3-2.8-0.5c-2.3-2-4.3-6.1-7.7-5.4
		c-2.8,2-4.6,4.8-6.6,7.4c-1,1.3-2.1,2.5-3.6,3.6c-2.3,3.3,1,5.4,3.6,7.7c1,0.8,1.8,1.5,2.3,2.5c-0.8,1.8-1.3,3.9-2.3,5.9
		c-0.8,2.1-2.1,4.1-3.6,5.9c-2.8,1-4.6-1.8-6.6-2.6c-3.1-1-4.9,0.2-6.2,2.6c-0.8,1.5-1.3,3.3-2,5.1c-0.8,1.8-1.5,3.8-2.9,5.1
		c-2.5,2.3,1.3,2.8,2.9,3.9l0.5,0.3l1.5,0.5c7.7,2.6,3.1,10,0.3,14.9h-10.2l-2.6,18.7l10.5,2.8l1.3,0.5l-0.3,11.8l-1,0.8
		c-2.9,2-8.2,0.5-11.3,1v18.5l11.3,0.8l2,0.2h1l1.5,11l-0.5,1.5c-0.5,0.3-1.3,0.5-2,0.8c-0.5,0.3-1.3,0.3-2,0.5
		c-2.6,0.8-4.9,1-5.4,2.8c-1,4.6,4.1,12.6,5.1,17.2l0.3-0.2c0.7,0,1.5-0.3,2-0.5c3.1-0.8,6.2-1.8,8.7-2.6c2.5,3.3,3.8,7.2,5.9,11
		l-9.5,9.2l11.3,13.9l0.8,0.5l12.5-6.6l1,1c2.6,3.1,4.9,7.5,6.9,10.8l-6.9,7.6l13.3,11.8c1.5-0.5,2.8-2.6,4.4-4.4
		c1.8-2.1,3.8-4.1,5.9-3.6c1,0.5,2,0.7,3.3,1.5c2.6,1.3,5.1,3.1,5.4,5.4c0.5,3.4-2.6,7.2-3.6,10.5l12.8,6.9h0.3
		c4.9,2.8,5.6-11.5,11.3-9.7l11.5,3.3c2.6,0.8-0.3,9-0.8,12.8l2.6,0.3l12.8,1l2.5,0.3v-5.1c0-3.6,0-6.4,2-6.4h13.1l1.1,11.8l18.4-1
		c1.5-4.1-1.8-9.8,2-12.8l0.8-0.5c3.3-1.5,7.4-2.8,10-1c1.3,1,2.5,2.8,3.3,4.6c1,2.3,1.5,4.6,1.8,6.4l2-0.8l15.1-6.9
		c-1.3-3.1-3.3-6.6-3.9-10.2l7.4-4.9c1-0.8,2.1-1,3.1-0.8C398.7,523.8,400,530,403.1,532 M498.6,446l-0.5,2.3l-2.6-0.5l-3.3-0.8
		l0.5-2.3c0.3-1.1,0.8-1.8,1.3-2.1l1.5-0.5l1,0.2c1,0.3,1.5,0.5,2.1,1.3C498.8,444.1,498.8,444.9,498.6,446 M510.4,439.8
		c-0.5,0-1,0-2.1-0.3l-1.2-0.2c-1.3-0.2-2.3-0.2-3.1,0c-0.5,0.5-1.3,1.3-1.8,2.3c0-1.3-0.5-2.3-1.2-3.3l-1-0.8
		c-0.8-0.5-1.5-0.8-2.5-1c-0.8-0.2-1.3-0.2-1.8-0.2c-1.8-0.3-3.1,0.2-4.3,1c-1.3,1-2.3,3.1-3.1,5.9l-2.3,10l4.1,0.8l0.8-0.8
		c0.5-0.3,1,0,2,0.3l2.8,0.5l4.4,1l4.6,1c1,0.2,1.5,0.5,1.8,0.8c0.3,0.2,0.5,0.5,0.5,1.3l4.3,0.8l1.8-8.2l-4.1-1l-1,0.8
		c-0.2,0.3-1,0-2-0.3l-3.1-0.8l0.3-1.8c0.3-1,0.8-1.8,1.3-2c0.5-0.6,1.3-0.6,2.6-0.2l3.3,0.7c1,0.2,1.8,0.5,2.3,0.5h1.5l1.3-6.4
		l-4.1-1L510.4,439.8z M208.7,514.6c-0.8,2.8-1.5,5.4-2.3,7.9c-0.5,2.5-1.3,4.9-2,7.4c-3.6,12.5-6.9,25.1-8.5,37.9
		c1.8,4.4,5.6,3.6,8.5,1.5l2-13.6l6.4-42C211.3,513.6,210,514.3,208.7,514.6 M437.6,552.5c-4.4-6.9-8.7-13.8-13.3-20.5v-0.5
		c0.3-0.8,0.5-1.3,0.8-2l-0.8-1.8c-0.5-1-1.5-2-3.1-2.6c-1.5,0.8-2.8,1.6-4.3,2.6c-1.5,1.3-3.3,2.6-4.9,4.1c0,2.5,1.8,4.4,3.9,5.9
		l1-0.5l1-0.5c2.1,3.3,4.4,6.9,6.4,10.2c2.8,4.4,5.7,8.7,8.5,13.1c1,2.6-1.3,4.6-3.8,4.6c-1.6-1-2.6-2.8-4.1-3.8l-0.5,0.3
		c-1.5,1-3.1,2-4.6,3.1c1.5,2,3.1,4.3,4.6,6.6l0.3,0.3c1.5,1.3,3.6,2.1,6.1,0.5c2.8-1,5.1-2.3,6.9-4.1c1.8-1.5,3.1-3.3,4.6-4.9
		c0.7-1.3,0.7-2.3-0.3-3.6C440.5,556.9,439.2,554.6,437.6,552.5 M446.9,551.2l-2.8,2.5l2.8,3.1l2.3,2.5l3.6-3.3l-5.1-5.4
		L446.9,551.2z M421.8,279.2l2.5,2.1l13.3,10.5l6.7-8.2l-3.9-3.1l-1.8,2l-1,1l-0.8,0.5c-0.5,0-1-0.2-1.8-0.5l2.6-3.3l6.1-7.7
		c0.5-1,1-1.3,1.3-1.5l1.3,0.3l0.5-0.8l2.3-2.8l-2.3-1.5l-4.6-3.9l-2.6,3.6l0.3,1c0,0.5-0.3,1-1,1.8l-1.3,1.8l-7.2,9.2
		c-0.7-0.5-1-1-1-1.5c0-0.8,0.2-1.5,0.7-2.3l1.8-2l-3.8-2.8l-3.9,4.6L421.8,279.2z M175.9,493.6c-5.1,18.7-8.7,38.2-13.3,57.1
		c-0.5,6.4-3.6,16.2,2.6,21c3.3-0.5,5.6,2.1,7.4-1.5c1-6.4,2.3-12.8,3.3-19.5c4.6-30.2,9.5-61.4,14.3-91.7h-2.6
		C182.6,470.3,179,481.8,175.9,493.6 M416.4,271l-0.8-1c0-0.5,0.3-1,1-2.1l0.3-0.8l5.6-9.5c0.5-1,1-1.5,1.3-1.8h1.3l2.1-3.8
		l-7.4-4.1l-2.1,3.6l0.5,1c0,0.5-0.3,1-0.7,2l-0.5,0.5l-5.6,10c-0.5,0.8-1,1.3-1.3,1.5h-1l-2,3.6l7.4,4.3L416.4,271z M456.9,294.1
		l1.8-2.3l2.6,2.6l-4.4,2.8l-4.1,2.8L456.9,294.1z M445.8,299.7l1,1.3l5.1,5.1l4.9-3.1l8.7-5.6l2.6-1.8c0.8-0.5,1.5-0.8,1.8-0.8h1.3
		l3.1-2.8l-5.3-5.9l-3.4,3.1l0.5,1l-0.5,1h-0.3l-0.3,0.2l-0.8,0.8l-3.6-3.9l0.7-0.8l0.3-0.3v-0.2l1-0.5l0.8,0.5l2-2.1l1.3-1l-1.3-1
		l-4.9-5.4l-3.1,3.1v1.3l-0.8,1.3v0.3l-10,14.6L445.8,299.7z M499.9,391.4l-4.4-0.3h-0.8l0.8-0.2l4.4-1.3l4.6-1.5l0.3,3.6
		L499.9,391.4z M509.4,379.6c-0.3,0.3-0.8,0.5-1.6,0.8l-7.9,2.8l-4.4,1.5l-6.1,2.1l1,9l5.1,0.2l4.4,0.2l9.7,0.8c1,0,1.5,0.2,2.1,0.2
		l0.8,1.1l4.3-0.6l-1-7.9l-4.4,0.5l-0.2,1l-0.8,0.5h-1.8l-0.8-5.1l1.3-0.2l0.3-0.3h0.2l1,0.3l0.5,1l4.4-0.5l-1.3-9l-4.1,0.5
		L509.4,379.6z M471.7,309.7c-0.3,1.5-0.3,3.6,0.5,6.1c0.5,2.3,0.8,3.6,0.8,4.4c0,0.8-0.2,1.3-0.8,1.8c-0.8,0.2-1.3,0.5-2.1,0.2
		l-1.6-1.3c-0.5-0.8-0.8-1.5-0.5-2.3c0.3-0.8,0.8-1.3,1.8-2l0.3-0.2l-3.1-4.6l-1.5,0.8l-3.6,2.5c0,1.5,0,3.1,0.5,4.6
		c0.2,1.3,1,2.8,1.8,4.1l1.3,1.5c1.3,1.3,2.6,2.1,4.1,2.6c2.1,0.5,3.8,0.3,5.9-1c1-0.8,1.5-1.5,2-2.3c0.5-0.8,0.8-1.8,0.8-2.8
		c0.3-1,0-2.8-0.5-4.9l-0.5-1.3c-0.3-1.3-0.3-2.3-0.3-3.1c0.3-0.8,0.8-1.3,1.3-1.8c0.7-0.5,1.3-0.7,2-0.5l1.3,0.5l0.5,0.8v0.3
		c0.5,0.8,0.8,1.3,0.5,2.1l-0.5,0.8l-0.5,0.8l-0.8,0.5l-0.5,0.5l1.3,1.5l0.5,1.3l1.5,1.8l5.4-3.6c0-1.5,0-3.1-0.5-4.6
		c-0.5-1.6-1-2.8-2-4.4c-1.3-1.8-2.6-3.1-4.3-3.6l-0.5-0.3l-0.5-0.2c-2.1-0.5-4.1,0-6.1,1.5C473.2,306.9,472.2,308.2,471.7,309.7
		 M481.7,336.6l-0.8,0.2c-1,0.5-1.8,0.8-2,0.5l-1-0.5l-3.9,1.8l3.6,7.7l3.8-1.8l0.3-1l0.5-0.5l1.3-0.8l10.8-4.9l1.3-0.5l0.8-0.2
		l1,0.7l2.5-1.3l1.3-0.5l-1.3-3.1l-2.3-4.9l-2.1,1l-1.8,0.8l-0.3,1.3c-0.3,0.2-0.8,0.5-1.8,1l-9.5,4.3L481.7,336.6z M495.5,352
		l-6.9,2c-1,0.3-1.8,0.6-2.3,0.3l-1-0.8l-3.1,0.8l-0.5,0.3h-0.3l0.3,0.8l0.5,2.6l1.5,4.6l3.8-1l0.5-1.3c0.3-0.3,0.8-0.5,1.8-0.8
		l5.6-1.8l1.8-0.5l-1.8,1.6l-10.5,8.9l1.8,6.4l4.1-1.3l0.3-1c0.2-0.2,0.8-0.5,1.5-0.7l2.8-0.8l4.4-1.3l4.9-1.3
		c1-0.2,1.8-0.5,2.1-0.2l0.8,0.7l4.4-1.3l-2.3-7.7l-4.1,1l-0.5,1.3c-0.2,0.3-0.8,0.5-1.8,0.8l-3.4,1l-4.1,1l4.1-3l8.2-7.2l-1.3-5.1
		l-6.9,2L495.5,352z M188,262.9c7.2,11.8,11.5,26.1,16.4,39.7c0.7,1.8,1.5,3.6,2,5.4c0.5,0.8,0.8,1.5,1,2.3l-1,0.8l-2,2l-8.7,9
		C186.9,304.9,183.9,283.1,188,262.9 M206.4,256.2c0.8-4.1,1.8-8.2,3.6-12h1.5l11.3,43l2.3,8.7c-0.5,1-1.3,1.8-2.3,2.8
		c-2.8,3.1-6.7,5.6-10.2,7.2c-2.6-7.7-4.9-16.6-6.2-25.6C205.4,272.3,205.1,264.1,206.4,256.2 M229.4,228l3.3-4.4
		c1.3,5.1,2.8,10.2,4.3,15.6c3.6,13.3,7.4,27.2,10,41.2c-3.3,2.6-6.7,5.6-10,7.9c-1,0.5-1.8,1-2.6,1.3
		C226.4,272.6,224.8,248,229.4,228 M254.8,208.8c0.2-0.8,0.5-1.8,0.7-2.8c3.3,9,5.9,18.4,8.4,27.9c2.6,9.7,4.6,19.7,6.9,29.7
		l-6.9,4.9l-7.4,5.4c-0.8-1.8-1.3-3.3-1.8-5.1c-2.1-6.4-3.1-13.8-3.3-21.3C249.2,234.2,251.2,221.1,254.8,208.8 M189.5,365.3
		c5.4-7.1,9.2-15.4,13.5-23l1.3-0.6c0.7-0.2,1.5-0.2,2-0.2c1.8,0.5,3.6,1.5,5.1,1.8c3.6-0.5,2.8,4.1,6.9,2.6
		c1.8-6.1-6.9-9.7-10.2-14.6l14.6-13.8l4.9-4.6c3.6,0.2,6.4,3.8,9.5,5.6c1.5,1,3.1,1.5,4.9,1c1.3-4.4-3.1-7.9-4.9-12
		c-0.5-0.8-0.8-1.5-1-2.3l1-0.8c5.9-4.6,11.8-9.5,17.7-14.1c3.1-2.6,6.1-5.1,9.2-7.4c4.9-4.1,9.7-7.9,14.6-11.8
		c1-0.8,2.3-1.5,3.4-2.3c-0.3-7.7-1.8-15.4-3.4-23.3c-4.1-21-9.5-42.7,0-62.7l0.8-1.3c8.2,12.5,16.4,25.4,24.1,38.7
		c4.4,7.4,8.7,14.9,12.8,22.3c2,4.1,4.1,7.9,6.1,12.1c1.3,2,2.3,4.3,3.6,6.6l1.5,10.3h4.4l-0.8-12.1c-3.3-4.6-5.9-9.7-8.7-14.6
		c-2-4.1-4.1-8.2-6.1-12.3c-2.8-5.7-5.4-11-8.5-16.4l8.5-13.3l6.1-10l15.9-25.1c10.8,5.6,21.3,11.8,31.3,18.2
		c1.3,0.7,2.5,1.8,3.8,2.6c3.8,2.5,7.7,5.1,11.3,7.9l10.5-14.3l11.8-16.4v-0.3l-11.8-27.9l-4.1-9.2c-5.7-4.1-11.8-8-17.7-12
		c-1.3-0.8-2.6-1.8-3.8-2.6c-15.6-10.5-31.5-21-46.9-30.2l-0.3-0.3c-2-1.5-4.1-3.1-6.1-4.4c-4.1-2.8-8.2-5.1-12.8-6.4h-0.5
		c-6.4,14.6-16.1,26.9-24.3,40.5c-1.8,3.3-3.6,6.4-5.1,9.7c1.8,1,3.6,2.3,5.1,3.6c8.7,5.6,16.7,11.3,24.9,17.9
		c2.6,2.1,5.4,4.1,8.2,6.4v2.6c-2.8,3.8-5.4,7.7-8.2,11.5c-4.6,6.4-9,12.6-13.8,18.7c-3.8-4.6-6.9-9.5-11-13.6
		c-1-1.3-2.3-2.3-3.6-3.3c-6.6,4.6-6.1,17.2-11,22.8c-2,2.3-4.9,3.6-9.2,2.6c-1.6-0.2-3.1-1-5.1-1.8c-4.1,3.3-8.5,6.4-12.6,9.8
		c-4.9,3.6-9.5,7.2-14.3,10.7c-5.4,4.1-10.8,8.4-16.4,12.6c-0.5,0.5-1.3,1-2,1.8c-9.5,7.4-19.2,15.1-28.4,22.8
		c-6.9,5.6-13.6,11.3-20.2,16.9l-11.8,100.9l10.3,19.4c-8.5,22.8-31,53.5-31.8,80.9v4.1c2.8,1.8,5.6,3.4,9,4.1
		c6.7-11.8,7.2-25.3,12.5-37.6c2-24.6,32-47.9,7.4-73.3c4.8-26.9,11.5-49.7,17.1-73.2l2.6,2.6c1.3,3.1,3.1,5.9,4.9,8.7
		c5.9,9.5,13,19.2,11,31.3c-3.3,7.4-7.4,13.8-11,20.5c-3.1,5.7-5.9,11.3-8.5,17.7l8.5,4.1l8.7,4.3c2.8-8.4,12.8-1.8,19.5-2.5
		C203.8,368.6,193.9,370.2,189.5,365.3 M373.3,249.3l2.6-11c0.3-1.1,0.5-1.5,0.8-1.8l1-0.5l1-4.1l-5.4-1.3l-2.6-0.5l-1,4.1l1,1
		c0,0.3,0,1-0.3,1.8l-1,4.9l-0.5,2.8l-3.1-15.9l-5.4-1.3l-4.4,18.4c-0.3,1-0.5,1.8-0.8,2.1l-1,0.5l-1,4.1l7.9,1.8l1-4.1l-1-1
		c0-0.2,0-1,0.2-1.8l1.8-7.7l3.1,15.9l3.1,0.5l3.3,0.8l0.5-1.8l0.5-2l-0.5-0.5l-0.3-0.5c-0.2-0.2-0.2-0.8,0-1.6L373.3,249.3z
		 M399.2,247.5l-3.3,8.2c-0.3,0.8-0.5,1.6-0.8,2.1l-0.7,0.5c-0.8,0.5-1.6,0.5-2.3,0c-1-0.3-1.5-0.8-1.5-1.5
		c-0.2-0.5-0.2-1.5,0.2-2.8l3.3-8.4c0.3-0.8,0.5-1.3,1-1.8l0.5-0.5c0.8-0.5,1.5-0.5,2.3-0.3c1,0.5,1.5,1,1.5,1.5
		C399.7,245.2,399.7,246.2,399.2,247.5 M399.7,238c-1.5-0.5-3.1-1-4.4-1h-0.3c-1.3,0-2,0.2-3.1,0.7c-0.7,0.5-1.3,1.1-1.8,1.8
		c-0.5,0.8-1,2.1-1.8,4.1l-3.1,7.9c-0.8,1.8-1.3,3.4-1.3,4.1c-0.3,1,0,1.8,0.3,2.6c0.2,1,0.8,2,1.8,2.8c1,0.8,2.3,1.5,4.1,2
		c1.5,0.8,3.1,1,4.4,1.3h0.5c1-0.2,2-0.5,2.8-0.8c0.8-0.5,1.3-1,1.8-1.8c0.5-0.8,1-2.1,1.8-4.1l3.1-7.9c0.8-2,1.3-3.3,1.3-4.4
		c0.2-0.8,0-1.5,0-2.3c-0.5-1-1-2-2-2.8C402.8,239.5,401.5,238.8,399.7,238"/>
</g>
</svg>
