<?xml version="1.0" encoding="utf-8"?>
<!-- Generator: Adobe Illustrator 16.0.0, SVG Export Plug-In . SVG Version: 6.00 Build 0)  -->
<!DOCTYPE svg PUBLIC "-//W3C//DTD SVG 1.1//EN" "http://www.w3.org/Graphics/SVG/1.1/DTD/svg11.dtd">
<svg version="1.1" id="Ebene_1" xmlns="http://www.w3.org/2000/svg" xmlns:xlink="http://www.w3.org/1999/xlink" x="0px" y="0px"
	 width="712.583px" height="183.51px" viewBox="57.792 181.884 712.583 183.51"
	 enable-background="new 57.792 181.884 712.583 183.51" xml:space="preserve">
<g>
	<path fill="#0075BF" d="M683.951,253.753h-0.562c-2.288,5.698-14.535,34.432-14.535,34.432c-0.045,0.179-0.292,0.561-0.314,0.718
		c-0.201,1.099,0.449,1.682,1.728,1.682h13.437c1.278,0,2.131-0.561,2.311-1.682c0.022-0.157-0.09-0.561-0.045-0.718
		C685.992,288.186,684.063,259.451,683.951,253.753z"/>
	<path fill="#0075BF" d="M329.672,233.117h-9.018c-7.357,0-14.288,5.899-15.59,13.257l-9.601,54.485
		c-1.301,7.381,3.545,13.279,10.902,13.279h9.017c7.357,0,14.064-5.697,15.41-13.279l9.601-54.485
		C341.718,238.836,337.03,233.117,329.672,233.117z"/>
	<path fill="#0075BF" d="M756.808,181.884H103.497c-8.86,0-17.361,7.133-18.887,15.859L58.03,349.513
		c-1.525,8.725,4.464,15.881,13.324,15.881h653.287c8.86,0,17.362-7.133,18.91-15.881l26.581-151.748
		C771.68,189.017,765.668,181.884,756.808,181.884z M265.743,235.517c-0.135,0.74-0.562,1.099-1.369,1.48l-17.429,7.918
		c-0.403,0.202-0.763,0.202-0.965,0.202c-1.099,0-1.278-1.122-2.019-3.14c-2.131-5.72-5.092-8.838-10.408-8.838h-9.018
		c-7.38,0-14.311,5.899-15.611,13.257l-9.601,54.486c-1.302,7.379,3.566,13.279,10.924,13.279h9.018
		c5.338,0,9.151-2.939,13.347-8.838c1.502-2.221,2.444-3.5,3.364-3.5c0.381,0,0.561,0,0.897,0.201l14.625,7.918
		c0.673,0.383,0.965,0.74,0.83,1.48c-0.314,1.818-3.836,7.156-11.216,13.617c-6.55,5.697-14.917,8.479-25.235,8.479h-9.018
		c-20.815,0-31.964-13.078-28.51-32.594l9.623-54.529c3.432-19.515,19.381-32.593,39.995-32.593h9.018
		c8.276,0,14.76,1.839,19.739,6.057C263.141,225.198,266.102,233.498,265.743,235.517z M361.57,246.396l-9.601,54.486
		c-3.433,19.514-19.381,32.592-39.995,32.592h-9.018c-20.816,0-31.942-13.078-28.487-32.592l9.601-54.486
		c3.432-19.515,19.358-32.593,39.973-32.593h9.039C353.696,213.803,365.001,226.858,361.57,246.396z M472.828,217.482
		l-19.807,112.313c-0.225,1.279-0.875,1.84-2.154,1.84H435.57l-1.48-0.92l-24.696-74l-11.956,73.104
		c-0.225,1.279-0.875,1.84-2.176,1.84h-17.115c-1.278,0-1.749-0.561-1.525-1.84l19.807-112.313c0.225-1.301,0.897-1.839,2.176-1.839
		h15.456l1.48,0.92l24.382,74.741l12.293-73.821c0.224-1.301,0.874-1.839,2.153-1.839h16.936
		C472.424,215.62,473.052,216.181,472.828,217.482z M527.717,217.482L507.91,329.794c-0.225,1.279-0.875,1.84-2.176,1.84h-17.474
		c-1.301,0-1.75-0.561-1.525-1.84l19.807-112.313c0.225-1.301,0.875-1.839,2.176-1.839h17.474
		C527.291,215.62,527.919,216.181,527.717,217.482z M618.811,311.378c-0.314,1.818-3.813,7.156-11.216,13.617
		c-6.527,5.697-14.939,8.479-25.235,8.479h-9.039c-20.816,0-31.942-13.078-28.511-32.592l9.601-54.486
		c3.432-19.515,19.381-32.593,39.995-32.593h9.018c8.276,0,14.782,1.839,19.739,6.057c6.415,5.338,9.376,13.638,9.018,15.657
		c-0.135,0.74-0.562,1.099-1.347,1.48l-17.429,7.918c-0.403,0.202-0.785,0.202-0.942,0.202c-1.099,0-1.278-1.122-2.041-3.14
		c-2.131-5.72-5.069-8.838-10.386-8.838h-9.04c-7.357,0-14.311,5.899-15.589,13.257l-9.602,54.486
		c-1.301,7.379,3.567,13.279,10.925,13.279h9.017c5.339,0,9.175-2.939,13.347-8.838c1.503-2.221,2.468-3.5,3.388-3.5
		c0.358,0,0.561,0,0.897,0.201l14.625,7.918C618.654,310.281,618.946,310.638,618.811,311.378z M710.734,331.634H692.16
		c-1.121,0-1.592-0.359-1.637-1.277l-2.109-19.336c-0.021-0.943-0.538-1.1-1.637-1.1h-26.335c-1.099,0-1.682,0.18-2.019,1.1
		l-8.95,19.336c-0.336,0.918-1.144,1.277-2.063,1.277h-18.394c-1.301,0-1.929-0.561-1.728-1.66c0.022-0.18,0.247-0.357,0.292-0.717
		l54.06-112.313c0.516-0.92,0.941-1.301,2.063-1.301h13.257c0.92,0,1.413,0.359,1.615,1.301l14.445,112.313
		c-0.067,0.359,0.09,0.537,0.067,0.717C712.865,331.074,712.035,331.634,710.734,331.634z"/>
</g>
</svg>
