<svg viewBox="0 0 513 280" fill="none" height="280" width="513" xmlns="http://www.w3.org/2000/svg"><path d="M512.143 0h-512v280h512V0Z" fill="#E30613"></path><path d="M159.534 128.817h21.5v-16.421h-21.787V77.29c24.081-13.872 62.495-21.233 96.322-21.233 63.069 0 100.623 22.932 115.243 31.142V66.25c-89.729-47.28-174.871-28.029-230.486 0v88.048c5.161 4.53 11.754 8.777 19.208 12.457v-37.937Z" fill="#fff"></path><path d="M235.502 67.664v117.493c7.167.566 14.621.849 22.074.849 6.02 0 12.04-.283 17.774-.566v-15.005h-21.787V66.815l-18.061.85ZM226.615 82.386V68.514c-13.76 1.415-26.374 3.963-38.127 7.078v101.921c11.753 3.114 24.367 5.662 38.127 7.077v-15.288c-6.88-.566-13.473-1.698-20.067-2.831v-37.654h18.347v-16.421h-18.347V84.934c6.594-.85 13.187-1.981 20.067-2.548ZM372.819 126.552c0-24.065-12.614-43.6-28.094-43.6s-28.094 19.535-28.094 43.6 12.614 43.6 28.094 43.6 28.094-19.535 28.094-43.6Zm-41.854 0c0-14.722 6.307-26.896 14.047-26.896s14.047 12.174 14.047 26.896c0 14.722-6.307 26.896-14.047 26.896s-14.047-12.174-14.047-26.896Z" fill="#fff"></path><path d="M303.157 87.2c3.727 0 7.167 2.547 10.321 6.51l9.173-10.757c-5.447-7.928-12.613-12.74-20.354-12.74-17.773 0-32.394 25.197-32.394 56.339 0 31.143 14.621 56.34 32.394 56.34 8.314 0 15.767-5.379 21.501-14.439l-9.747-9.626c-3.153 4.247-6.88 6.229-10.894 6.229-10.607 0-15.193-16.987-15.193-38.504s4.586-39.353 15.193-39.353ZM392.886 70.779c0-1.982-1.433-3.68-4.3-3.68h-6.02v15.004h2.293v-6.511h2.294c.573 0 2.007 0 2.293 1.698.287 1.982 0 3.964.574 4.813h2.293c-.287-.85-.573-3.114-.573-3.963 0-3.115-.86-3.681-2.58-3.681 2.293-.566 3.726-1.982 3.726-3.68Zm-4.586 2.548h-3.154v-4.813h3.154c1.72 0 2.293 1.132 2.293 2.265 0 1.415-.86 2.548-2.293 2.548Z" fill="#fff"></path><path d="M387.726 61.436c-7.167 0-13.187 5.662-13.187 13.023 0 7.078 6.02 13.023 13.187 13.023s13.187-5.662 13.187-13.023c-.286-7.078-6.02-13.023-13.187-13.023Zm0 24.065c-6.307 0-11.18-4.813-11.18-11.042 0-5.945 4.873-11.041 11.18-11.041 6.307 0 11.181 4.813 11.181 11.041-.287 6.229-5.161 11.041-11.181 11.041ZM234.929 243.478h41.281V202.71h-41.281v40.768Zm1.72-38.786h37.554v37.088h-37.554v-37.088Z" fill="#fff"></path><path d="M260.443 208.655h-9.747v9.626h-9.747v9.626h9.747v9.626h9.747v-9.626h9.747v-9.626h-9.747v-9.626ZM154.373 224.51c-.573-.567-1.433-.85-2.293-1.133l-2.58-.849c-.86-.283-1.433-.283-2.007-.566-.573 0-1.146-.284-1.433-.567-.287-.283-.573-.283-.86-.566-.287-.283-.287-.566-.287-.849 0-.566.287-1.133.86-1.416.574-.283 1.147-.566 2.007-.566.86 0 1.72.283 2.293.566.574.283.86.85.86 1.699h4.874c0-1.133-.287-1.982-.574-2.548-.286-.849-.86-1.416-1.72-1.982-.573-.566-1.433-.849-2.58-1.132-.86-.283-2.006-.284-3.153-.284-1.147 0-2.293.001-3.153.284-.86.283-1.721.566-2.581 1.132-.573.566-1.146 1.133-1.72 1.982-.286.849-.573 1.699-.573 2.831s.287 1.982.573 2.548c.287.566.86 1.132 1.72 1.699.574.566 1.434.849 2.294 1.132.86.283 1.72.566 2.58.566.573.284 1.433.284 1.72.567.573 0 .86.283 1.433.566.287.283.574.283.86.566.287.283.287.566.287.849 0 .284 0 .567-.287.85-.286.283-.286.566-.86.566-.286.283-.573.283-1.146.283h-1.147c-1.147 0-2.007-.283-2.867-.566-.573-.566-1.146-1.133-1.146-2.265h-4.874c0 1.132.287 1.982.573 2.831.574.849 1.147 1.416 1.72 1.982.86.566 1.721.849 2.867 1.132 1.147.283 2.294.567 3.727.567 1.147 0 2.293-.284 3.153-.567.86-.283 1.72-.566 2.58-1.132.86-.566 1.434-1.133 1.72-1.982.287-.849.574-1.699.574-2.831s-.287-1.982-.574-2.548l-.86-.849ZM176.734 223.377c0 .566-.287 1.133-.287 1.699 0 .566-.286 1.132-.286 1.699 0 .566-.287 1.132-.287 1.698 0-.566-.287-1.132-.287-1.698 0-.567-.286-.85-.286-1.416s-.287-1.133-.287-1.699l-1.72-8.493h-4.587l-2.293 8.493c0 .566-.287 1.133-.287 1.699 0 .566-.287 1.132-.287 1.416 0 .566-.286 1.132-.286 1.698 0-.566-.287-1.132-.287-1.698 0-.567-.287-1.133-.287-1.699 0-.566-.286-1.133-.286-1.416l-2.007-8.493h-4.873l5.446 19.535h4.874l2.007-9.343c0-.283.286-.849.286-1.133 0-.566 0-.849.287-1.132 0-.283.287-.849.287-1.132 0 .283.286.849.286 1.132 0 .283.287.849.287 1.132 0 .567.287.85.287 1.133l2.006 9.343h4.874l4.873-19.535h-4.873l-2.007 8.21ZM191.641 215.167h-4.873v19.535h4.873v-19.535ZM209.702 224.51c-.574-.567-1.434-.85-2.294-1.133l-2.58-.849c-.86-.283-1.433-.283-2.007-.566-.573 0-1.146-.284-1.433-.567-.287-.283-.573-.283-.86-.566-.287-.283-.287-.566-.287-.849 0-.566.287-1.133.86-1.416.574-.283 1.147-.566 2.007-.566.86 0 1.72.283 2.293.566.574.283.86.85.86 1.699h4.874c0-1.133-.287-1.982-.573-2.548-.287-.849-.86-1.416-1.72-1.982-.574-.566-1.434-.849-2.581-1.132-.86-.283-2.006-.284-3.153-.284-1.147 0-2.293.001-3.153.284-.86.283-1.72.566-2.58 1.132-.574.566-1.147 1.133-1.72 1.982-.287.849-.574 1.699-.574 2.831s.287 1.982.574 2.548c.286.566.86 1.132 1.72 1.699.573.566 1.433.849 2.293 1.132.86.283 1.72.566 2.58.566.573.284 1.433.284 1.72.567.573 0 .86.283 1.433.566.287.283.574.283.86.566.287.283.287.566.287.849 0 .284 0 .567-.287.85-.286.283-.286.566-.86.566-.286.283-.573.283-1.146.283h-1.147c-1.147 0-2.007-.283-2.867-.566-.573-.566-1.146-1.133-1.146-2.265h-4.874c0 1.132.287 1.982.574 2.831.573.849 1.146 1.416 1.72 1.982.86.566 1.72.849 2.866 1.132 1.147.283 2.294.567 3.727.567 1.147 0 2.293-.284 3.153-.567.861-.283 1.721-.566 2.581-1.132.86-.566 1.433-1.133 1.72-1.982.286-.849.573-1.699.573-2.831s-.287-1.982-.573-2.548l-.86-.849ZM229.482 224.51c-.573-.567-1.433-.85-2.293-1.133l-2.58-.849c-.86-.283-1.434-.283-2.007-.566-.573 0-1.147-.284-1.433-.567-.287-.283-.574-.283-.86-.566-.287-.283-.287-.566-.287-.849 0-.566.287-1.133.86-1.416.573-.283 1.147-.566 2.007-.566.86 0 1.72.283 2.293.566.573.283.86.85.86 1.699h4.873c0-1.133-.286-1.982-.573-2.548-.287-.849-.86-1.416-1.72-1.982-.573-.566-1.433-.849-2.58-1.132-.86-.283-2.007-.284-3.153-.284-1.147 0-2.294.001-3.154.284-.86.283-1.72.566-2.58 1.132-.573.566-1.147 1.133-1.72 1.982-.287.849-.573 1.699-.573 2.831s.286 1.982.573 2.548c.287.566.86 1.132 1.72 1.699.573.566 1.433.849 2.294 1.132.86.283 1.72.566 2.58.566.573.284 1.433.284 1.72.567.573 0 .86.283 1.433.566.287.283.573.283.86.566.573.283.573.849.573 1.133 0 .283 0 .566-.286.849-.287.283-.287.566-.86.566-.287.283-.574.283-1.147.283h-1.147c-1.146 0-2.006-.283-2.866-.566-.574-.566-1.147-1.132-1.147-2.265h-4.874c0 1.133.287 1.982.574 2.831.573.85 1.146 1.416 1.72 1.982.86.566 1.72.849 2.867 1.132 1.146.284 2.293.567 3.726.567 1.147 0 2.294-.283 3.154-.567.86-.283 1.72-.566 2.58-1.132.86-.566 1.433-1.132 1.72-1.982.286-.849.573-1.698.573-2.831 0-1.132-.287-1.982-.573-2.548l-1.147-1.132ZM292.837 223.66c0 .283-.287.85-.287 1.133 0 .566-.286 1.132-.286 1.415-.287.567-.287 1.133-.287 1.699-.287-.566-.287-1.132-.573-1.699 0-.566-.287-.849-.287-1.415 0-.567-.287-.85-.287-1.133l-2.293-8.493h-6.594v19.535h4.301v-13.873c0 .566.286 1.133.286 1.699 0 .283.287.849.287 1.132 0 .283.287.567.287.85l2.866 10.192h4.014l2.866-10.192c0-.283 0-.567.287-.85 0-.283.287-.849.287-1.132 0-.566.287-1.133.287-1.699V234.702h4.586v-19.535h-6.88l-2.58 8.493ZM315.198 215.167l-7.167 19.535h4.873l1.147-3.681h6.88l1.147 3.681h5.16l-7.167-19.535h-4.873Zm0 12.457 1.433-4.813c0-.283.287-.566.287-.849 0-.284.286-.567.286-.85 0-.283.287-.566.287-1.132 0 .283.287.566.287 1.132 0 .283.286.566.286.85 0 .283.287.566.287.849l1.433 4.813h-4.586ZM348.739 217.715c-.861-.849-1.721-1.416-2.867-1.982-1.147-.566-2.294-.849-3.727-.849h-8.6v19.535h8.313c1.147 0 2.294-.284 3.44-.567.86-.283 2.007-.849 2.581-1.415 1.146-.85 2.006-1.982 2.58-3.398.573-1.415.86-2.831.86-4.529 0-1.416-.287-2.832-.574-3.964-.573-.849-1.146-1.982-2.006-2.831Zm-3.727 11.608c-.86.849-2.007 1.415-3.727 1.415h-2.867V219.13h2.867c1.433 0 2.867.567 3.727 1.699.86 1.133 1.146 2.548 1.146 4.247 0 1.699-.286 3.114-1.146 4.247ZM362.786 226.491h8.886v-3.963h-8.886v-3.398h10.32v-3.963h-15.194v19.535h15.194v-3.964h-10.32v-4.247Z" fill="#fff"></path></svg>