<svg xmlns="http://www.w3.org/2000/svg" viewBox="0 0 238.36 208.4"><defs><style>.a{fill:#337ab7;}</style></defs><title>Tata Group logo</title><polyline class="a" points="0 148.98 57.38 148.98 57.38 166.44 40.92 166.44 40.92 208.4 17.01 208.4 17.01 166.44 0 166.44 0 148.98"/><polyline class="a" points="86.44 172.99 74.37 208.4 51.4 208.4 73.92 148.98 98.86 148.98 121.92 208.4 98.68 208.4 86.44 172.99"/><polyline class="a" points="116.44 148.98 173.82 148.98 173.82 166.44 157.36 166.44 157.36 208.4 133.45 208.4 133.45 166.44 116.44 166.44 116.44 148.98"/><polyline class="a" points="202.88 172.99 190.8 208.4 167.84 208.4 190.36 148.98 215.3 148.98 238.36 208.4 215.12 208.4 202.88 172.99"/><path class="a" d="M596.15,447.69a53.1,53.1,0,0,0-8.44-12c-7.86-8.48-18.94-15.54-32.07-20.41a130.76,130.76,0,0,0-87.28,0c-13.12,4.87-24.21,11.92-32.07,20.41a53.15,53.15,0,0,0-8.45,12c17.08-4.13,46.29-9.59,73.42-10.16a6.49,6.49,0,0,1,5.61,2.28c1.45,1.83,1.34,8.36,1.3,11.28l-.77,75.47c1.53.05,3.07.08,4.6.08s3.09,0,4.62-.08l-.77-75.47c0-2.92-.15-9.45,1.3-11.28a6.48,6.48,0,0,1,5.6-2.28c27.12.57,56.32,6,73.4,10.15" transform="translate(-392.82 -407.8)"/><path class="a" d="M599.79,457.5c-25-5.65-41.69-6.7-58.16-7.61-14.36-.8-14.54,4.33-13.11,14.13.09.6.2,1.35.34,2.21,4.81,28.52,10.81,53.07,11.84,57.23,35-8,60.25-30.18,60.25-56.24a41.62,41.62,0,0,0-1.17-9.72" transform="translate(-392.82 -407.8)"/><path class="a" d="M495.5,464c1.43-9.8,1.25-14.92-13.11-14.13-16.48.91-33.18,2-58.18,7.61a41.64,41.64,0,0,0-1.16,9.72c0,11.26,4.58,22.17,13.25,31.53,7.86,8.48,18.94,15.54,32.07,20.4a114.75,114.75,0,0,0,14.93,4.36c1-3.9,7.11-29,12-58,.09-.56.17-1.07.23-1.49" transform="translate(-392.82 -407.8)"/></svg>